<?xml version="1.0" encoding="UTF-8"?>
<svg width="35px" height="35px" version="1.1" viewBox="0 0 40 40" xmlns="http://www.w3.org/2000/svg">
 <circle cx="20" cy="20" r="20" paint-order="markers stroke fill"/>
 <path d="m13.789 23.83c0 1.31-0.423 2.388-1.27 3.234-0.838 0.839-1.942 1.258-3.312 1.258h-4.403v-15.723h4.492c1.31 0 2.385 0.423 3.224 1.27 0.846 0.838 1.269 1.912 1.269 3.223zm-2.808 0v-6.738c0-0.562-0.187-0.981-0.562-1.258-0.374-0.285-0.748-0.427-1.122-0.427h-1.685v10.107h1.684c0.375 0 0.75-0.138 1.123-0.415 0.375-0.285 0.562-0.708 0.562-1.27zm11.894 4.492h-5.896c-0.562 0-1.03-0.187-1.404-0.561-0.375-0.375-0.562-0.843-0.562-1.404v-11.792c0-0.562 0.187-1.03 0.562-1.404 0.374-0.375 0.842-0.562 1.404-0.562h5.896v2.808h-5.055v3.65h3.088v2.808h-3.088v3.65h5.054v2.807zm7.12 0c-0.936 0-1.684-0.655-2.246-1.965l-3.65-13.758h3.089l2.807 10.804 2.808-10.804h3.087l-3.65 13.758c-0.56 1.31-1.309 1.965-2.245 1.965z" fill="#fff"/>
</svg>
