<svg xmlns="http://www.w3.org/2000/svg" width="40" height="40" viewBox="0 0 3.951 3.951">
    <circle cx="1.975" cy="1.976" r="1.976" fill="#ffd900" stroke-opacity=".49" stroke-width=".494" />
    <path fill="#78c800" stroke-width=".212"
        d="M1.975 3.951a1.976 1.976 0 00.02 0 1.976 1.976 0 00.038 0 1.976 1.976 0 00.037-.002 1.976 1.976 0 00.037-.002 1.976 1.976 0 00.037-.003 1.976 1.976 0 00.037-.003 1.976 1.976 0 00.037-.004 1.976 1.976 0 00.037-.006 1.976 1.976 0 00.036-.005 1.976 1.976 0 00.037-.006 1.976 1.976 0 00.036-.007 1.976 1.976 0 00.037-.008 1.976 1.976 0 00.036-.008 1.976 1.976 0 00.036-.01 1.976 1.976 0 00.036-.009 1.976 1.976 0 00.036-.01 1.976 1.976 0 00.035-.011 1.976 1.976 0 00.035-.012 1.976 1.976 0 00.035-.012 1.976 1.976 0 00.035-.013 1.976 1.976 0 00.035-.014 1.976 1.976 0 00.034-.014 1.976 1.976 0 00.034-.015 1.976 1.976 0 00.034-.016 1.976 1.976 0 00.033-.016 1.976 1.976 0 00.033-.017 1.976 1.976 0 00.033-.018 1.976 1.976 0 00.032-.018 1.976 1.976 0 00.032-.018 1.976 1.976 0 00.032-.02 1.976 1.976 0 00.032-.02 1.976 1.976 0 00.03-.02 1.976 1.976 0 00.031-.021 1.976 1.976 0 00.03-.022 1.976 1.976 0 00.03-.022 1.976 1.976 0 00.03-.023 1.976 1.976 0 00.029-.023 1.976 1.976 0 00.028-.024 1.976 1.976 0 00.028-.024 1.976 1.976 0 00.028-.025 1.976 1.976 0 00.027-.025 1.976 1.976 0 00.026-.026 1.976 1.976 0 00.027-.027 1.976 1.976 0 00.025-.027 1.976 1.976 0 00.025-.027 1.976 1.976 0 00.025-.028 1.976 1.976 0 00.024-.028 1.976 1.976 0 00.023-.029 1.976 1.976 0 00.023-.029 1.976 1.976 0 00.023-.03 1.976 1.976 0 00.022-.03 1.976 1.976 0 00.021-.03 1.976 1.976 0 00.02-.03 1.976 1.976 0 00.021-.032A1.976 1.976 0 003.665 3a1.976 1.976 0 00.018-.031 1.976 1.976 0 00.019-.033 1.976 1.976 0 00.018-.032 1.976 1.976 0 00.017-.033 1.976 1.976 0 00.016-.034 1.976 1.976 0 00.016-.033 1.976 1.976 0 00.015-.034 1.976 1.976 0 00.015-.034 1.976 1.976 0 00.014-.035 1.976 1.976 0 00.013-.034 1.976 1.976 0 00.013-.035 1.976 1.976 0 00.012-.035 1.976 1.976 0 00.011-.036 1.976 1.976 0 00.01-.035 1.976 1.976 0 00.011-.036 1.976 1.976 0 00.01-.036 1.976 1.976 0 00.008-.036 1.976 1.976 0 00.008-.037 1.976 1.976 0 00.007-.036 1.976 1.976 0 00.007-.037 1.976 1.976 0 00.006-.036 1.976 1.976 0 00.005-.037 1.976 1.976 0 000-.008c-.157.047-.506.26-.606.26-.084 0 .046-.564.046-1.07 0-.127-.057-.318-.157-.318-.245 0-.275.22-.806.22-.842 0-.944-.568-1.37-.568-.374 0-.364.883-.364.999 0 .116.028.503-.15.503C.41 2.253.2 2.13 0 2.024a1.976 1.976 0 000 .009 1.976 1.976 0 00.002.037 1.976 1.976 0 00.002.037 1.976 1.976 0 00.003.037 1.976 1.976 0 00.003.037 1.976 1.976 0 00.005.037 1.976 1.976 0 00.005.037 1.976 1.976 0 00.005.037 1.976 1.976 0 00.006.036 1.976 1.976 0 00.007.037 1.976 1.976 0 00.008.036 1.976 1.976 0 00.008.036 1.976 1.976 0 00.01.036 1.976 1.976 0 00.009.036 1.976 1.976 0 00.01.036 1.976 1.976 0 00.011.035 1.976 1.976 0 00.012.035 1.976 1.976 0 00.013.036 1.976 1.976 0 00.013.034 1.976 1.976 0 00.013.035 1.976 1.976 0 00.014.034 1.976 1.976 0 00.016.034 1.976 1.976 0 00.015.034 1.976 1.976 0 00.016.033 1.976 1.976 0 00.017.033 1.976 1.976 0 00.018.033 1.976 1.976 0 00.018.033 1.976 1.976 0 00.018.032 1.976 1.976 0 00.02.032 1.976 1.976 0 00.02.03 1.976 1.976 0 00.02.032 1.976 1.976 0 00.021.03 1.976 1.976 0 00.022.03 1.976 1.976 0 00.022.03 1.976 1.976 0 00.023.03 1.976 1.976 0 00.023.029 1.976 1.976 0 00.024.028 1.976 1.976 0 00.024.028 1.976 1.976 0 00.025.028 1.976 1.976 0 00.026.027 1.976 1.976 0 00.025.027 1.976 1.976 0 00.027.026 1.976 1.976 0 00.027.025 1.976 1.976 0 00.027.026 1.976 1.976 0 00.028.024 1.976 1.976 0 00.028.024 1.976 1.976 0 00.029.024 1.976 1.976 0 00.029.023 1.976 1.976 0 00.03.022 1.976 1.976 0 00.03.022 1.976 1.976 0 00.03.021 1.976 1.976 0 00.03.021 1.976 1.976 0 00.032.02 1.976 1.976 0 00.032.02 1.976 1.976 0 00.032.019 1.976 1.976 0 00.032.018 1.976 1.976 0 00.033.018 1.976 1.976 0 00.033.017 1.976 1.976 0 00.033.017 1.976 1.976 0 00.033.015 1.976 1.976 0 00.034.016 1.976 1.976 0 00.034.014 1.976 1.976 0 00.035.014 1.976 1.976 0 00.034.014 1.976 1.976 0 00.035.012 1.976 1.976 0 00.036.012 1.976 1.976 0 00.035.012 1.976 1.976 0 00.036.01 1.976 1.976 0 00.035.01 1.976 1.976 0 00.036.01 1.976 1.976 0 00.036.008 1.976 1.976 0 00.037.008 1.976 1.976 0 00.036.008 1.976 1.976 0 00.037.006 1.976 1.976 0 00.036.006 1.976 1.976 0 00.037.005 1.976 1.976 0 00.037.005 1.976 1.976 0 00.037.004 1.976 1.976 0 00.037.003 1.976 1.976 0 00.037.002 1.976 1.976 0 00.037.002 1.976 1.976 0 00.037.001 1.976 1.976 0 00.037 0z" />
    <g stroke-width=".021">
        <path fill="#8EE000"
            d="M3.005 1.496c-.077 0-.096.04-.123.014-.013-.012.053-.04.053-.053 0-.006-.01-.005-.023-.005-.081 0-.24.118-.262.118-.01 0-.026.003-.026-.012 0-.034.113-.062.034-.062-.078 0-.193.1-.314.1-.248 0-.447-.195-.447-.146 0 .017.028.044.047.08 0 0 .01.051-.01.031-.228-.227-.456-.283-.456-.283s-.017 0-.017.008c0 .026.05.06.05.07 0 .01-.007.017-.017.017-.048 0-.083-.093-.277-.093-.295 0-.376.463-.376.842 0 .539.347.71.634.71.227 0 .47-.134.572-.33l.303.022s.148.281.415.281c.25 0 .468-.158.468-.708 0-.577-.151-.601-.228-.601z" />
        <ellipse cx="1.444" cy="2.145" fill="#FFF" rx=".387" ry=".471" />
        <path fill="#FFF"
            d="M3.091 2.234c-.012.228-.167.409-.345.403-.178-.006-.313-.196-.3-.425.011-.229.166-.41.344-.403.179.006.314.196.301.425z" />
        <ellipse cx="1.436" cy="2.145" fill="#3F3F3F" rx=".213" ry=".259" />
        <ellipse cx="1.298" cy="1.981" fill="#FFF" rx=".1" ry=".108" />
        <path fill="#3F3F3F"
            d="M2.946 2.234c-.01.134-.1.24-.201.234-.101-.005-.175-.117-.166-.252.01-.134.1-.24.201-.235s.175.118.166.253z" />
        <path fill="#71B200" d="M1.938 2.687s-.062.52.108.517c.17-.004.164-.253.162-.256 0-.003-.27-.26-.27-.26z" />
        <path fill="#FFF"
            d="M2.734 2.077c.002.055-.036.1-.085.102-.049.002-.09-.042-.092-.096-.001-.055.037-.1.086-.102.049-.002.09.041.091.096z" />
        <path fill="#F49000" d="M1.938 2.634s-.036.38.15.38c.184 0 .276-.151.276-.288 0-.136-.426-.092-.426-.092z" />
        <path fill="#FFC200"
            d="M2.217 2.409c.135 0 .236.156.236.311s-.126.313-.168.313c-.041 0-.348-.285-.348-.406s.117-.218.28-.218z" />
        <ellipse cx="-2.374" cy="2.347" fill="#FFF3B8" rx=".049" ry=".09" transform="rotate(-86.836)" />
    </g>
</svg>