<svg clip-rule="evenodd" fill-rule="evenodd" image-rendering="optimizeQuality" shape-rendering="geometricPrecision"
    text-rendering="geometricPrecision" version="1.1" viewBox="0 0 416.66 416.69" xml:space="preserve"
    xmlns="http://www.w3.org/2000/svg">

    <circle cx="206.33" cy="220.06" r="205.33" fill="#fff" stroke-width="2.946" />
    <path
        d="m207.41 9.759c-114.73 0-207.43 92.914-207.43 207.91 0 91.994 59.66 170.19 142.26 197.79 10.096 1.84 13.767-4.6 13.767-10.12v-34.957c-57.823 12.88-69.755-27.598-69.755-27.598-9.178-23.919-22.946-30.358-22.946-30.358-19.274-12.88 1.836-12.88 1.836-12.88 21.11 1.84 32.124 21.16 32.124 21.16 18.357 32.197 48.645 22.998 60.577 17.478 1.835-13.8 7.342-22.999 12.85-27.598-45.892-5.52-94.537-22.999-94.537-103.03 0-22.998 8.26-41.397 21.11-56.116-1.836-5.52-9.178-26.679 1.836-55.197 0 0 17.438-5.52 56.905 21.159 16.52-4.6 33.96-7.36 52.316-7.36 17.439 0 35.795 2.76 52.316 7.36 39.467-26.678 56.906-21.159 56.906-21.159 11.014 28.518 4.589 49.677 1.835 55.197 13.768 14.719 21.11 33.118 21.11 56.116 0 80.035-48.644 97.514-94.536 103.03 7.343 6.44 13.768 19.319 13.768 38.637v57.037c0 5.52 3.67 11.959 14.685 10.12 82.604-27.6 142.26-105.79 142.26-197.79 0-114.99-92.7-207.91-207.43-207.91z"
        fill="#323030" stroke-width=".919" />
</svg>