<svg
   xmlns:dc="http://purl.org/dc/elements/1.1/"
   xmlns:cc="http://creativecommons.org/ns#"
   xmlns:rdf="http://www.w3.org/1999/02/22-rdf-syntax-ns#"
   xmlns:svg="http://www.w3.org/2000/svg"
   xmlns="http://www.w3.org/2000/svg"
   xmlns:sodipodi="http://sodipodi.sourceforge.net/DTD/sodipodi-0.dtd"
   xmlns:inkscape="http://www.inkscape.org/namespaces/inkscape"
   enable-background="new 0 0 40 40"
   id="Layer_1"
   version="1.1"
   viewBox="0 0 40 40"
   xml:space="preserve"
   sodipodi:docname="gmail.svg"
   width="40"
   height="40"
   inkscape:version="0.92.2 (unknown)"><metadata
     id="metadata4001"><rdf:RDF><cc:Work
         rdf:about=""><dc:format>image/svg+xml</dc:format><dc:type
           rdf:resource="http://purl.org/dc/dcmitype/StillImage" /><dc:title /></cc:Work></rdf:RDF></metadata><defs
     id="defs3999" /><sodipodi:namedview
     pagecolor="#ffffff"
     bordercolor="#666666"
     borderopacity="1"
     objecttolerance="10"
     gridtolerance="10"
     guidetolerance="10"
     inkscape:pageopacity="0"
     inkscape:pageshadow="2"
     inkscape:window-width="1920"
     inkscape:window-height="993"
     id="namedview3997"
     showgrid="false"
     inkscape:zoom="5.79"
     inkscape:cx="19.90118"
     inkscape:cy="13.473413"
     inkscape:window-x="0"
     inkscape:window-y="24"
     inkscape:window-maximized="1"
     inkscape:current-layer="Layer_1" /><circle
     style="fill:#b7b7b7;fill-opacity:1;stroke:none;stroke-width:2.99582386;stroke-linecap:round;stroke-linejoin:bevel;stroke-miterlimit:4;stroke-dasharray:none;stroke-dashoffset:30;stroke-opacity:1;paint-order:markers stroke fill"
     id="path880"
     cx="20"
     cy="20"
     r="20" /><path
     style="fill:#e65a4d;stroke-width:0.10196777"
     inkscape:connector-curvature="0"
     id="path3928"
     d="m 33.327555,8.6895447 c 1.372817,-0.1420848 2.663675,0.943846 2.755879,2.3240933 0.02049,0.36536 0,0.740868 0,1.116376 -0.122943,0 -0.215143,0.08119 -0.317593,0.152234 -1.126939,0.801761 -2.243633,1.593373 -3.370572,2.395135 -3.759878,2.557517 -7.519757,5.104886 -11.269392,7.672552 -0.389305,0.263871 -0.829836,0.466849 -1.137184,0.842357 -0.174163,0.03045 -0.286856,-0.08119 -0.409796,-0.172532 -3.03249,-2.090668 -6.075226,-4.191486 -9.107716,-6.282155 -1.0347352,-0.710421 -2.0592255,-1.420843 -3.1759198,-2.182009 0,0.27402 0,0.4567 0,0.63938 0,2.902579 0,5.815307 0,8.717886 0,2.567666 0.010184,5.135333 0.020495,7.702998 0,0.07104 -0.010184,0.142085 -0.010184,0.213128 -1.7007201,0.324764 -3.1452511,-0.476997 -3.5243124,-1.968883 -0.051225,-0.213127 -0.071715,-0.436402 -0.071715,-0.649528 0,-5.957392 0.010247,-11.924932 -0.010247,-17.882324 C 3.6890508,9.81607 5.0516247,8.4764175 6.475666,8.6895447 6.526891,8.7402847 6.56787,8.7910375 6.6190946,8.8316282 10.932198,11.998078 15.245302,15.164528 19.54816,18.330978 c 0.256123,0.19283 0.409797,0.162382 0.645428,-0.01018 2.684166,-1.968883 5.378574,-3.927617 8.062738,-5.88635 1.690409,-1.238164 3.380817,-2.4966244 5.071227,-3.7449359 z" /><path
     style="fill:#e6e3d6;stroke-width:0.10196777"
     inkscape:connector-curvature="0"
     id="path3930"
     d="m 7.305506,31.62601 c -0.010184,-2.567666 -0.010184,-5.135333 -0.020495,-7.703 0,-2.902579 0,-5.815307 0,-8.717886 0,-0.182679 0,-0.355211 0,-0.639379 1.1064482,0.761165 2.1411832,1.471587 3.175919,2.182008 3.032491,2.09067 6.075227,4.191488 9.107717,6.282157 0.122942,0.08119 0.235633,0.192828 0.409797,0.172531 0.02049,0.223275 0.225388,0.284168 0.37906,0.385657 3.483268,2.395136 6.966533,4.769973 10.439556,7.185407 0.44053,0.304465 0.952776,0.52774 1.290857,0.974291 -0.102447,0.131935 -0.245877,0.101493 -0.379062,0.101493 -8.072982,0 -16.145964,-0.01018 -24.2189465,-0.01018 0.071718,-0.101493 0.1434291,-0.192829 0.2151423,-0.294318 0.2253883,-0.07104 0.4302859,-0.162382 0.5122451,-0.405955 0.4302859,-0.0609 0.6864085,-0.365359 0.9527758,-0.659677 -0.3688161,0.152233 -0.7171427,0.314615 -0.9732653,0.639379 -0.225387,0.07104 -0.4302858,0.162382 -0.5122451,0.405955 -0.1229421,0.0203 -0.2458778,0.0609 -0.3790608,0.101493 z m 6.136696,-4.059551 c 0.03073,0 0.06147,0 0.102447,0 0.133184,-0.07104 0.297103,-0.101493 0.307348,-0.304467 0.08196,0 0.163918,-0.02029 0.204897,-0.101493 0.03073,-0.03045 0.07172,-0.07104 0.102448,-0.101493 0.08195,0 0.163918,-0.02029 0.204898,-0.101493 0.01018,-0.0203 0.03073,-0.03045 0.04098,-0.05074 -0.0205,0.01018 -0.03073,0.03045 -0.05122,0.04059 -0.08195,0 -0.163918,0.0203 -0.204899,0.101493 -0.03073,0.03045 -0.07172,0.07104 -0.102447,0.101493 -0.08195,0 -0.163919,0.0203 -0.204898,0.101492 -0.143429,0 -0.245878,0.07104 -0.307347,0.202978 -0.03073,0.04059 -0.06147,0.07104 -0.0922,0.111639 -0.0205,0.01018 -0.04098,0.02029 -0.05122,0.04059 0.02049,-0.01018 0.04098,-0.02029 0.05122,-0.04059 z m -0.614694,0.405954 c 0.08197,0 0.163918,-0.0203 0.204897,-0.101492 0.08195,-0.01018 0.163919,-0.02029 0.153674,-0.121784 0,-0.01018 -0.02049,-0.03045 -0.03073,-0.03045 -0.112695,-0.01018 -0.122942,0.07104 -0.133184,0.152233 -0.08195,0 -0.153674,0.01018 -0.194653,0.101492 -0.04098,0.03045 -0.07172,0.0609 -0.112695,0.09134 -0.08195,0 -0.163919,0.0203 -0.204899,0.101493 -0.03073,0.03045 -0.07172,0.07104 -0.102447,0.101492 -0.08195,0 -0.163919,0.02029 -0.204898,0.101493 -0.143429,0.01018 -0.245878,0.07104 -0.307348,0.202978 -0.03073,0.03045 -0.06147,0.07104 -0.102447,0.101493 -0.01018,0.02029 -0.03073,0.03045 -0.04098,0.05074 0.02049,-0.01018 0.03074,-0.03045 0.05122,-0.04059 0.08195,0 0.163919,-0.02029 0.204898,-0.101492 0.122942,-0.01018 0.194654,-0.07104 0.204899,-0.202977 0.08197,0 0.163918,-0.0203 0.204897,-0.101493 0.03073,-0.03045 0.07172,-0.07104 0.102448,-0.101493 0.08195,0 0.163918,-0.0203 0.204898,-0.101492 0.04098,-0.03045 0.07172,-0.0609 0.102448,-0.101493 z m -1.639185,1.116378 c -0.08195,0.01018 -0.163918,0.0203 -0.153673,0.131935 0,0.01018 0.02049,0.03045 0.03073,0.03045 0.102447,0 0.112695,-0.08119 0.122942,-0.162382 0.0922,0.01018 0.163918,-0.01018 0.215142,-0.09133 0.08197,-0.01018 0.163919,-0.02029 0.153674,-0.131935 0,-0.01018 -0.0205,-0.03045 -0.03073,-0.03045 -0.112695,-0.01018 -0.122942,0.07104 -0.133184,0.152234 -0.0922,0 -0.163919,0.02029 -0.204898,0.101493 z m -1.3420822,0.90325 c -0.1434277,0.01018 -0.2458778,0.08119 -0.3073463,0.202976 -0.071718,0.0203 -0.1639185,0.03045 -0.1536738,0.131936 0,0.01018 0.020495,0.03045 0.030729,0.03045 0.1024475,0.01018 0.1229421,-0.07104 0.143429,-0.152233 0.1434291,0 0.2868569,-0.02029 0.3073476,-0.202978 0.081953,0 0.1536727,-0.02029 0.2048977,-0.101492 0.143429,-0.01018 0.245878,-0.08119 0.307346,-0.202978 0.07172,-0.0203 0.163919,-0.0203 0.153674,-0.131936 0,-0.01018 -0.02049,-0.03045 -0.03073,-0.03045 -0.112695,-0.01018 -0.122942,0.07104 -0.133184,0.152233 -0.143428,0 -0.286857,0.01018 -0.307347,0.202978 -0.0922,0.01018 -0.1639183,0.03045 -0.2151434,0.101492 z m 1.0040012,-0.578486 c -0.01018,-0.03045 -0.01018,-0.07104 -0.03073,-0.08119 -0.02049,-0.01018 -0.06147,0 -0.08195,0.02029 -0.03074,0.04059 -0.0205,0.09133 0.04098,0.09133 0.01018,0.01018 0.04098,-0.01018 0.07172,-0.03045 z" /><path
     style="fill:#f6f4ec;stroke-width:0.10196777"
     inkscape:connector-curvature="0"
     id="path3932"
     d="m 33.327555,8.6895447 c -1.690409,1.2483116 -3.380817,2.4966243 -5.081471,3.7449363 -2.684164,1.968882 -5.378573,3.917467 -8.062738,5.886349 -0.245876,0.18268 -0.389305,0.202978 -0.645428,0.01018 -4.302859,-3.176598 -8.615962,-6.3329 -12.9290656,-9.4993501 -0.051225,-0.040595 -0.092204,-0.091335 -0.1434287,-0.1420836 5.5937163,0 11.1874323,-0.010184 16.7913933,-0.010184 3.350083,0.010184 6.71041,0.010184 10.070738,0.010184 z" /><path
     style="fill:#b6b5ac;stroke-width:0.10196777"
     inkscape:connector-curvature="0"
     id="path3934"
     d="M 32.087923,31.727499 C 31.749841,31.280948 31.237596,31.057673 30.797065,30.753206 27.324043,28.347923 23.830532,25.962935 20.35751,23.5678 c -0.143428,-0.101493 -0.348327,-0.162382 -0.379061,-0.385658 0.307347,-0.375508 0.747878,-0.578486 1.137183,-0.842357 3.749635,-2.567665 7.509513,-5.115033 11.269392,-7.672551 0,5.713818 0,11.427637 0.01018,17.141455 -0.102448,-0.01018 -0.204898,-0.05074 -0.307347,-0.08119 z" /><path
     style="fill:#b13a30;stroke-width:0.10196777"
     inkscape:connector-curvature="0"
     id="path3936"
     d="m 32.405514,31.828988 c 0,-5.713819 0,-11.427638 -0.01018,-17.141457 1.126939,-0.801761 2.243633,-1.593373 3.370572,-2.395135 0.0922,-0.07104 0.18441,-0.152233 0.317593,-0.152233 0.01018,1.877543 0.02049,3.744936 0.02049,5.622479 0,3.663745 0,7.32749 0,10.991235 0,0.253722 0,0.507444 -0.01018,0.761165 -0.06147,1.258463 -0.676164,1.968884 -1.905552,2.202307 -0.594204,0.111639 -1.188409,0.182681 -1.782613,0.111639 z" /><path
     style="fill:#c1c0b6;stroke-width:0.10196777"
     inkscape:connector-curvature="0"
     id="path3938"
     d="m 7.7153023,31.53467 c -0.071718,0.101493 -0.143429,0.192829 -0.2151436,0.294318 -0.071718,0 -0.133183,0 -0.2048975,0.01018 0,-0.07104 0.010184,-0.142085 0.010184,-0.213127 0.133183,-0.04059 0.2561225,-0.07104 0.3893055,-0.111638 0,0 0.020495,0.0203 0.020495,0.0203 z" /><path
     style="fill:#c1c0b6;stroke-width:0.10196777"
     inkscape:connector-curvature="0"
     id="path3940"
     d="M 8.2070567,31.108417 C 8.4631792,30.793802 8.8115058,30.621271 9.1803232,30.469038 8.9139546,30.763355 8.657832,31.067821 8.2275462,31.128715 Z" /><path
     style="fill:#c1c0b6;stroke-width:0.10196777"
     inkscape:connector-curvature="0"
     id="path3942"
     d="m 8.2275462,31.128715 c -0.0922,0.243573 -0.2971016,0.334913 -0.5122439,0.405955 0,0 -0.020495,-0.0203 -0.020495,-0.0203 0.081953,-0.243573 0.2971029,-0.334913 0.5122452,-0.405956 0,0 0.020494,0.0203 0.020494,0.0203 z" /><path
     style="fill:#c5c3b9;stroke-width:0.10196777"
     inkscape:connector-curvature="0"
     id="path3944"
     d="m 13.851998,27.261992 c -0.01018,0.192828 -0.184408,0.223275 -0.307348,0.304467 0,-0.03045 0,-0.07104 0,-0.101493 0.06147,-0.131936 0.163919,-0.202978 0.307348,-0.202978 0,0 0,0 0,0 z" /><path
     style="fill:#c3c2b8;stroke-width:0.10196777"
     inkscape:connector-curvature="0"
     id="path3946"
     d="m 11.895221,28.581346 c 0.06147,-0.131936 0.163919,-0.202977 0.307348,-0.202977 l 0.01018,0.01018 c 0,0.131935 -0.07172,0.192828 -0.204899,0.202978 -0.03073,-0.01018 -0.07172,-0.01018 -0.112695,-0.01018 z" /><path
     style="fill:#c1c0b6;stroke-width:0.10196777"
     inkscape:connector-curvature="0"
     id="path3948"
     d="m 10.378975,29.707871 c -0.06147,0.131936 -0.163917,0.19283 -0.307346,0.202978 0,0 -0.01018,-0.01018 -0.01018,-0.01018 0.02049,-0.19283 0.163918,-0.202978 0.307346,-0.202978 z" /><path
     style="fill:#c1c0b6;stroke-width:0.10196777"
     inkscape:connector-curvature="0"
     id="path3950"
     d="m 9.5388945,30.195017 c 0.061471,-0.121783 0.1639186,-0.192828 0.3073463,-0.202976 l 0.010184,0.02029 C 9.8359299,30.20516 9.702752,30.21531 9.5490782,30.21531 Z" /><path
     style="fill:#c1c0b6;stroke-width:0.10196777"
     inkscape:connector-curvature="0"
     id="path3952"
     d="m 11.382976,28.977152 c 0.01018,-0.08119 0.03073,-0.162382 0.133185,-0.152232 0.01018,0 0.03073,0.0203 0.03073,0.03045 0,0.111638 -0.08195,0.111638 -0.153674,0.131935 z" /><path
     style="fill:#c1c0b6;stroke-width:0.10196777"
     inkscape:connector-curvature="0"
     id="path3954"
     d="m 11.188323,29.098939 c -0.01018,0.08119 -0.02049,0.162382 -0.133184,0.152234 -0.01018,0 -0.03073,-0.0203 -0.03073,-0.03045 0,-0.121784 0.08195,-0.121784 0.163919,-0.121784 0,-0.01018 0,0 0,0 z" /><path
     style="fill:#c1c0b6;stroke-width:0.10196777"
     inkscape:connector-curvature="0"
     id="path3956"
     d="m 10.850242,29.413555 c -0.0205,0.01018 -0.05122,0.04059 -0.07172,0.04059 -0.05122,-0.01018 -0.07172,-0.05074 -0.04098,-0.09133 0.01018,-0.02029 0.06147,-0.03045 0.08195,-0.02029 0.01018,0.01018 0.02049,0.04059 0.03073,0.07104 z" /><path
     style="fill:#c1c0b6;stroke-width:0.10196777"
     inkscape:connector-curvature="0"
     id="path3958"
     d="m 10.358486,29.687574 c 0.01018,-0.08119 0.03074,-0.152233 0.133184,-0.152233 0.01018,0 0.03073,0.02029 0.03073,0.03045 0.01018,0.111638 -0.08195,0.111638 -0.153673,0.131936 0.01018,0.01018 -0.01018,-0.01018 -0.01018,-0.01018 z" /><path
     style="fill:#c1c0b6;stroke-width:0.10196777"
     inkscape:connector-curvature="0"
     id="path3960"
     d="m 9.559384,30.215316 c -0.020495,0.08119 -0.030729,0.152233 -0.143429,0.152233 -0.010184,0 -0.030729,-0.02029 -0.030729,-0.03045 -0.010184,-0.111639 0.081953,-0.111639 0.1536738,-0.131936 0,-0.01018 0.020495,0.01018 0.020495,0.01018 z" /><path
     style="fill:#c3c2b8;stroke-width:0.10196777"
     inkscape:connector-curvature="0"
     id="path3962"
     d="m 13.032405,27.870924 c 0.01018,-0.08119 0.02049,-0.162382 0.133184,-0.152232 0.01018,0 0.03073,0.02029 0.03073,0.03045 0,0.111638 -0.08195,0.111638 -0.163919,0.121783 z" /><path
     style="fill:#c5c3b9;stroke-width:0.10196777"
     inkscape:connector-curvature="0"
     id="path3964"
     d="m 14.159344,27.059014 c 0.04098,-0.08119 0.122942,-0.101493 0.204899,-0.101493 v 0 c -0.04098,0.08119 -0.112695,0.101493 -0.204899,0.101493 z" /><path
     style="fill:#c5c3b9;stroke-width:0.10196777"
     inkscape:connector-curvature="0"
     id="path3966"
     d="m 14.056895,27.160503 c -0.04098,0.08119 -0.122942,0.101493 -0.204897,0.101493 0,0 -0.01018,-0.01018 -0.01018,-0.01018 0.05122,-0.07104 0.122942,-0.09134 0.215143,-0.09134 0,0 0,0 0,0 z" /><path
     style="fill:#c3c2b8;stroke-width:0.10196777"
     inkscape:connector-curvature="0"
     id="path3968"
     d="m 12.52016,28.175391 c 0.04098,-0.08119 0.122942,-0.101493 0.204899,-0.101493 0,0 0.01018,0.01018 0.01018,0.01018 -0.05122,0.07104 -0.122942,0.09134 -0.215143,0.09134 0,0.01018 0,0 0,0 z" /><path
     style="fill:#c3c2b8;stroke-width:0.10196777"
     inkscape:connector-curvature="0"
     id="path3970"
     d="m 12.212814,28.378369 c 0.04098,-0.08119 0.122942,-0.101493 0.204897,-0.101493 l 0.01018,0.01018 c -0.05122,0.08119 -0.122942,0.09135 -0.215142,0.09135 0,0 0,0 0,0 z" /><path
     style="fill:#c1c0b6;stroke-width:0.10196777"
     inkscape:connector-curvature="0"
     id="path3972"
     d="m 11.895221,28.581346 c 0.04098,0 0.08197,0 0.112695,0 -0.05122,0.08119 -0.122942,0.101493 -0.204897,0.101493 0,0 -0.01018,-0.01018 -0.01018,-0.01018 0.04098,-0.03045 0.07172,-0.0609 0.102447,-0.09133 z" /><path
     style="fill:#c1c0b6;stroke-width:0.10196777"
     inkscape:connector-curvature="0"
     id="path3974"
     d="m 11.393221,28.987302 c -0.04098,0.08119 -0.122942,0.101492 -0.204898,0.101492 0,0 -0.01018,-0.01018 -0.01018,-0.01018 0.04098,-0.08119 0.122942,-0.101493 0.204897,-0.101493 0,0 0.01018,0.01018 0.01018,0.01018 z" /><path
     style="fill:#c1c0b6;stroke-width:0.10196777"
     inkscape:connector-curvature="0"
     id="path3976"
     d="m 9.8462408,29.992041 c 0.040976,-0.08119 0.1229421,-0.101493 0.2048992,-0.101493 0,0 0.01018,0.01018 0.01018,0.01018 -0.04098,0.08119 -0.1229418,0.101492 -0.2048985,0.101492 0.010184,0.01018 -0.010184,-0.01018 -0.010184,-0.01018 z" /><path
     style="fill:#c3c2b8;stroke-width:0.10196777"
     inkscape:connector-curvature="0"
     id="path3978"
     d="m 13.032405,27.870924 c -0.04098,0.08119 -0.112695,0.101493 -0.204897,0.101493 v 0 c 0.04098,-0.09133 0.112694,-0.101493 0.204897,-0.101493 0,0 0,0 0,0 z" /><path
     style="fill:#c5c3b9;stroke-width:0.10196777"
     inkscape:connector-curvature="0"
     id="path3980"
     d="m 14.364243,26.957526 c 0.0205,-0.01018 0.03073,-0.03045 0.05122,-0.04059 -0.0205,0.01018 -0.03073,0.03045 -0.05122,0.04059 0,0 0,0 0,0 z" /><path
     style="fill:#c5c3b9;stroke-width:0.10196777"
     inkscape:connector-curvature="0"
     id="path3982"
     d="m 14.159344,27.059014 c -0.03073,0.03045 -0.07172,0.07104 -0.102447,0.101493 0,0 -0.01018,-0.01018 -0.01018,-0.01018 0.04098,-0.03045 0.07172,-0.0609 0.112695,-0.09134 0,0 0,0 0,0 z" /><path
     style="fill:#c3c2b8;stroke-width:0.10196777"
     inkscape:connector-curvature="0"
     id="path3984"
     d="m 13.54465,27.46497 c 0,0.03045 0,0.07104 0,0.101493 -0.03073,0 -0.06147,0.01018 -0.102447,0 v 0 c 0.03073,-0.04059 0.06147,-0.07104 0.102447,-0.101493 z" /><path
     style="fill:#c3c2b8;stroke-width:0.10196777"
     inkscape:connector-curvature="0"
     id="path3986"
     d="m 13.442202,27.566459 c -0.0205,0.01018 -0.03073,0.03045 -0.05122,0.04059 0.02049,-0.01018 0.03073,-0.03045 0.05122,-0.04059 0,0 0,0 0,0 z" /><path
     style="fill:#c3c2b8;stroke-width:0.10196777"
     inkscape:connector-curvature="0"
     id="path3988"
     d="m 12.417711,28.27688 c 0.03073,-0.03045 0.07172,-0.07104 0.102448,-0.101493 0,0 0.01018,0.01018 0.01018,0.01018 -0.04098,0.03045 -0.07172,0.0609 -0.112694,0.09134 0,0 0,0 0,0 z" /><path
     style="fill:#c1c0b6;stroke-width:0.10196777"
     inkscape:connector-curvature="0"
     id="path3990"
     d="m 11.803017,28.682835 c -0.02049,0.01018 -0.03073,0.03045 -0.05122,0.04059 0.02049,-0.01018 0.03074,-0.03045 0.05122,-0.04059 0,0 0,0 0,0 z" /><path
     style="fill:#c3c2b8;stroke-width:0.10196777"
     inkscape:connector-curvature="0"
     id="path3992"
     d="m 12.827508,27.972413 c -0.03073,0.03045 -0.07172,0.07104 -0.102448,0.101493 0,0 -0.01018,-0.01018 -0.01018,-0.01018 0.04098,-0.03045 0.07172,-0.0609 0.112695,-0.09133 0,0 0,0 0,0 z" /></svg>