<svg version="1.1" viewBox="0 0 40 40" xmlns="http://www.w3.org/2000/svg">
 <circle cx="20" cy="20" r="20" fill="#b7b7b7" paint-order="markers stroke fill"/>
 <path d="m33.328 8.69c1.372-0.143 2.663 0.943 2.755 2.324 0.02 0.365 0 0.74 0 1.116-0.123 0-0.215 0.081-0.317 0.152l-3.37 2.395c-3.76 2.558-7.52 5.105-11.27 7.673-0.39 0.264-0.83 0.467-1.137 0.842-0.174 0.03-0.287-0.08-0.41-0.172-3.033-2.09-6.075-4.192-9.108-6.282-1.035-0.71-2.059-1.421-3.176-2.182v9.357c0 2.568 0.01 5.135 0.02 7.703 0 0.07-0.01 0.142-0.01 0.213-1.7 0.325-3.145-0.477-3.524-1.969a2.805 2.805 0 0 1-0.071-0.65c0-5.957 0.01-11.924-0.01-17.882-0.01-1.512 1.352-2.852 2.776-2.638 0.05 0.05 0.092 0.101 0.143 0.142 4.313 3.166 8.626 6.333 12.93 9.499 0.255 0.193 0.409 0.162 0.645-0.01 2.684-1.97 5.378-3.928 8.062-5.887 1.69-1.238 3.381-2.496 5.072-3.744z" fill="#e65a4d"/>
 <path d="m7.306 31.626c-0.01-2.568-0.01-5.135-0.021-7.703v-9.358c1.106 0.762 2.141 1.472 3.176 2.183 3.032 2.09 6.075 4.191 9.108 6.282 0.123 0.081 0.235 0.193 0.41 0.172 0.02 0.224 0.225 0.285 0.379 0.386 3.483 2.395 6.966 4.77 10.44 7.186 0.44 0.304 0.952 0.527 1.29 0.974-0.103 0.132-0.246 0.101-0.38 0.101-8.072 0-16.145-0.01-24.218-0.01 0.072-0.101 0.143-0.193 0.215-0.294 0.225-0.071 0.43-0.163 0.512-0.406 0.43-0.061 0.687-0.366 0.953-0.66-0.369 0.152-0.717 0.315-0.973 0.64-0.226 0.07-0.43 0.162-0.512 0.405-0.123 0.02-0.246 0.061-0.38 0.102zm6.136-4.06h0.103c0.133-0.07 0.297-0.101 0.307-0.304 0.082 0 0.164-0.02 0.205-0.102l0.102-0.101c0.082 0 0.164-0.02 0.205-0.101 0.01-0.02 0.031-0.03 0.041-0.051-0.02 0.01-0.03 0.03-0.051 0.04-0.082 0-0.164 0.02-0.205 0.102l-0.102 0.101c-0.082 0-0.164 0.02-0.205 0.102-0.144 0-0.246 0.07-0.308 0.203-0.03 0.04-0.061 0.07-0.092 0.111-0.02 0.01-0.04 0.02-0.051 0.041 0.02-0.01 0.041-0.02 0.051-0.04zm-0.614 0.406c0.081 0 0.163-0.02 0.204-0.101 0.082-0.01 0.164-0.02 0.154-0.122 0-0.01-0.02-0.03-0.03-0.03-0.113-0.01-0.124 0.07-0.134 0.152-0.082 0-0.154 0.01-0.194 0.101-0.041 0.03-0.072 0.061-0.113 0.092-0.082 0-0.164 0.02-0.205 0.101l-0.103 0.102c-0.081 0-0.163 0.02-0.204 0.101-0.144 0.01-0.246 0.071-0.308 0.203-0.03 0.03-0.061 0.071-0.102 0.102-0.01 0.02-0.031 0.03-0.041 0.05 0.02-0.01 0.03-0.03 0.051-0.04 0.082 0 0.164-0.02 0.205-0.102 0.123-0.01 0.195-0.07 0.205-0.203 0.082 0 0.164-0.02 0.205-0.101l0.102-0.102c0.082 0 0.164-0.02 0.205-0.101a0.483 0.483 0 0 0 0.103-0.102zm-1.64 1.117c-0.082 0.01-0.164 0.02-0.153 0.132 0 0.01 0.02 0.03 0.03 0.03 0.103 0 0.113-0.081 0.123-0.162 0.093 0.01 0.164-0.01 0.215-0.092 0.082-0.01 0.164-0.02 0.154-0.131 0-0.01-0.02-0.03-0.03-0.03-0.113-0.011-0.124 0.07-0.134 0.151-0.092 0-0.164 0.02-0.205 0.102zm-1.342 0.903a0.353 0.353 0 0 0-0.307 0.203c-0.072 0.02-0.164 0.03-0.154 0.132 0 0.01 0.02 0.03 0.03 0.03 0.103 0.01 0.124-0.07 0.144-0.152 0.144 0 0.287-0.02 0.308-0.203 0.082 0 0.153-0.02 0.205-0.101a0.353 0.353 0 0 0 0.307-0.203c0.072-0.02 0.164-0.02 0.154-0.132 0-0.01-0.02-0.03-0.031-0.03-0.113-0.01-0.123 0.07-0.133 0.152-0.144 0-0.287 0.01-0.308 0.203-0.092 0.01-0.164 0.03-0.215 0.101zm1.004-0.578c-0.01-0.03-0.01-0.071-0.03-0.082-0.021-0.01-0.062 0-0.082 0.02-0.031 0.041-0.02 0.092 0.04 0.092 0.01 0.01 0.042-0.01 0.072-0.03z" fill="#e6e3d6"/>
 <path d="m33.328 8.69c-1.69 1.248-3.381 2.496-5.082 3.744-2.684 1.97-5.378 3.918-8.063 5.887-0.246 0.183-0.389 0.203-0.645 0.01-4.303-3.177-8.616-6.333-12.93-9.5-0.05-0.04-0.091-0.09-0.143-0.141 5.594 0 11.188-0.01 16.792-0.01 3.35 0.01 6.71 0.01 10.07 0.01z" fill="#f6f4ec"/>
 <path d="m32.088 31.727c-0.338-0.446-0.85-0.67-1.29-0.974-3.474-2.405-6.967-4.79-10.44-7.185-0.144-0.102-0.349-0.163-0.38-0.386 0.308-0.375 0.748-0.578 1.138-0.842 3.75-2.568 7.51-5.115 11.269-7.673 0 5.714 0 11.428 0.01 17.142-0.102-0.01-0.205-0.051-0.307-0.082z" fill="#b6b5ac"/>
 <path d="m32.406 31.829c0-5.714 0-11.428-0.01-17.141 1.126-0.802 2.243-1.594 3.37-2.396 0.092-0.07 0.184-0.152 0.317-0.152 0.01 1.878 0.021 3.745 0.021 5.623v10.99c0 0.255 0 0.508-0.01 0.762-0.062 1.259-0.676 1.969-1.906 2.202-0.594 0.112-1.188 0.183-1.782 0.112z" fill="#b13a30"/>
 <path d="m7.715 31.535c-0.071 0.101-0.143 0.192-0.215 0.294-0.072 0-0.133 0-0.205 0.01 0-0.07 0.01-0.142 0.01-0.213 0.134-0.04 0.257-0.071 0.39-0.112l0.02 0.02zm0.492-0.427c0.256-0.314 0.605-0.487 0.973-0.639-0.266 0.294-0.522 0.599-0.952 0.66z" fill="#c1c0b6"/>
 <path d="m8.228 31.129c-0.093 0.243-0.298 0.335-0.513 0.406l-0.02-0.02c0.082-0.244 0.297-0.336 0.512-0.407l0.02 0.02z" fill="#c1c0b6"/>
 <path d="m13.852 27.262c-0.01 0.193-0.184 0.223-0.307 0.304v-0.101c0.061-0.132 0.164-0.203 0.307-0.203z" fill="#c5c3b9"/>
 <path d="m11.895 28.581c0.062-0.132 0.164-0.203 0.308-0.203l0.01 0.01c0 0.132-0.072 0.193-0.205 0.204-0.03-0.01-0.072-0.01-0.113-0.01z" fill="#c3c2b8"/>
 <path d="m10.379 29.708c-0.061 0.132-0.164 0.193-0.307 0.203l-0.01-0.01c0.02-0.193 0.163-0.203 0.307-0.203zm-0.84 0.487a0.353 0.353 0 0 1 0.307-0.203l0.01 0.02c-0.02 0.193-0.153 0.203-0.307 0.203zm1.844-1.218c0.01-0.081 0.03-0.162 0.133-0.152 0.01 0 0.03 0.02 0.03 0.03 0 0.112-0.081 0.112-0.153 0.132zm-0.195 0.122c-0.01 0.081-0.02 0.162-0.133 0.152-0.01 0-0.03-0.02-0.03-0.03 0-0.122 0.081-0.122 0.163-0.122v0zm-0.338 0.315c-0.02 0.01-0.051 0.04-0.071 0.04-0.052-0.01-0.072-0.05-0.041-0.091 0.01-0.02 0.061-0.03 0.081-0.02 0.01 0.01 0.021 0.04 0.031 0.07z" fill="#c1c0b6"/>
 <path d="m10.358 29.688c0.01-0.082 0.031-0.153 0.134-0.153 0.01 0 0.03 0.02 0.03 0.03 0.01 0.112-0.082 0.112-0.153 0.133l-0.01-0.01zm-0.798 0.527c-0.021 0.082-0.031 0.153-0.144 0.153-0.01 0-0.03-0.02-0.03-0.03-0.011-0.113 0.081-0.113 0.153-0.133 0-0.01 0.02 0.01 0.02 0.01z" fill="#c1c0b6"/>
 <path d="m13.032 27.87c0.01-0.08 0.02-0.161 0.134-0.151 0.01 0 0.03 0.02 0.03 0.03 0 0.112-0.082 0.112-0.164 0.122z" fill="#c3c2b8"/>
 <path d="m14.16 27.059c0.04-0.081 0.122-0.101 0.204-0.101-0.04 0.08-0.112 0.101-0.205 0.101zm-0.103 0.101c-0.041 0.082-0.123 0.102-0.205 0.102l-0.01-0.01c0.051-0.071 0.123-0.092 0.215-0.092z" fill="#c5c3b9"/>
 <path d="m12.52 28.175c0.041-0.08 0.123-0.101 0.205-0.101l0.01 0.01c-0.051 0.071-0.123 0.091-0.215 0.091v0zm-0.307 0.203c0.04-0.08 0.123-0.101 0.205-0.101l0.01 0.01c-0.051 0.081-0.123 0.091-0.215 0.091z" fill="#c3c2b8"/>
 <path d="m11.895 28.581h0.113c-0.051 0.082-0.123 0.102-0.205 0.102l-0.01-0.01c0.04-0.03 0.072-0.061 0.102-0.092zm-0.502 0.406c-0.04 0.081-0.123 0.102-0.205 0.102l-0.01-0.01c0.041-0.082 0.123-0.102 0.205-0.102zm-1.547 1.005c0.041-0.081 0.123-0.101 0.205-0.101l0.01 0.01c-0.04 0.08-0.123 0.101-0.205 0.101z" fill="#c1c0b6"/>
 <path d="m13.032 27.87c-0.04 0.082-0.112 0.102-0.204 0.102 0.04-0.09 0.112-0.101 0.204-0.101z" fill="#c3c2b8"/>
 <path d="m14.364 26.958c0.02-0.01 0.031-0.03 0.051-0.041-0.02 0.01-0.03 0.03-0.05 0.04zm-0.204 0.101-0.103 0.102-0.01-0.01c0.04-0.031 0.071-0.062 0.112-0.092z" fill="#c5c3b9"/>
 <path d="m13.545 27.465v0.101c-0.031 0-0.062 0.01-0.103 0a0.484 0.484 0 0 1 0.103-0.101zm-0.103 0.101c-0.02 0.01-0.03 0.03-0.051 0.041 0.02-0.01 0.03-0.03 0.051-0.04zm-1.024 0.711 0.102-0.102 0.01 0.01c-0.04 0.031-0.071 0.061-0.112 0.092z" fill="#c3c2b8"/>
 <path d="m11.803 28.683c-0.02 0.01-0.03 0.03-0.051 0.04 0.02-0.01 0.03-0.03 0.051-0.04z" fill="#c1c0b6"/>
 <path d="m12.828 27.972-0.103 0.102-0.01-0.01c0.04-0.03 0.072-0.061 0.113-0.092z" fill="#c3c2b8"/>
</svg>
