<svg width="35px" height="35px" version="1.1" viewBox="0 0 40 40" xmlns="http://www.w3.org/2000/svg">
 <circle cx="20" cy="20.169" r="20" fill="#323437" paint-order="markers stroke fill"/>
 <g transform="matrix(.11892 0 0 .11892 82.997 131.88)" fill="#e2b714">
  <path d="m-430-910c5.519 0 10 4.481 10 10s-4.481 10-10 10-10-4.481-10-10 4.481-10 10-10z"/>
  <path d="m-570-910h60c5.519 0 10 4.481 10 10s-4.481 10-10 10h-60c-5.519 0-10-4.481-10-10s4.481-10 10-10z"/>
  <path d="m-590-970c5.519 0 10 4.481 10 10v20c0 5.519-4.481 10-10 10s-10-4.481-10-10v-20c0-5.519 4.481-10 10-10z"/>
  <path d="m-639.99-960.52c0.271-16.321 13.606-29.485 29.991-29.485 7.68 0 14.69 2.892 20 7.645 5.31-4.753 12.32-7.645 20-7.645 16.385 0 29.72 13.164 29.991 29.485 8e-3 0.17 9e-3 0.343 9e-3 0.515v20c0 5.519-4.481 10-10 10s-10-4.481-10-10v-20c0-5.519-4.481-10-10-10s-10 4.481-10 10v20c0 5.519-4.481 10-10 10s-10-4.481-10-10v-20c0-5.519-4.481-10-10-10s-10 4.481-10 10v20c0 5.519-4.481 10-10 10s-10-4.481-10-10v-20c0-0.172 4e-3 -0.344 9e-3 -0.515z"/>
  <path d="m-460-930v30c0 5.519-4.481 10-10 10s-10-4.481-10-10v-30h-28.82c-6.17 0-11.18-4.481-11.18-10s5.01-10 11.18-10h77.64c6.17 0 11.18 4.481 11.18 10s-5.01 10-11.18 10z"/>
  <path d="m-470-990h40c5.519 0 10 4.481 10 10s-4.481 10-10 10h-40c-5.519 0-10-4.481-10-10s4.481-10 10-10z"/>
  <path d="m-630-910h20c5.519 0 10 4.481 10 10s-4.481 10-10 10h-20c-5.519 0-10-4.481-10-10s4.481-10 10-10z"/>
  <path d="m-515-990h5c5.519 0 10 4.481 10 10s-4.481 10-10 10h-5c-5.519 0-10-4.481-10-10s4.481-10 10-10z"/>
  <path d="m-660-910h-20v-70c0-27.596 22.404-50 50-50h200c27.596 0 50 22.404 50 50v80c0 27.596-22.404 50-50 50h-200c-27.596 0-50-22.404-50-50v-20h20v20c0 16.557 13.443 30 30 30h200c16.557 0 30-13.443 30-30v-80c0-16.557-13.443-30-30-30h-200c-16.557 0-30 13.443-30 30z"/>
 </g>
</svg>
