<svg width="35px" height="35px" version="1.1" viewBox="0 0 40 40" xmlns="http://www.w3.org/2000/svg">
 <circle cx="20" cy="20" r="20" fill="#5f6ceb" paint-order="markers stroke fill"/>
 <g transform="matrix(.64864 0 0 .64864 8 8)">
  <path d="m12.719 36.064v-11.054h11.562v4.5209c-3e-3 1.7337-0.6939 3.3953-1.9208 4.6201-1.227 1.2248-2.8899 1.9127-4.6235 1.9127z" fill="#88CFB0"/>
  <path d="m17.714 37h-5.8969v-12.927h13.366v5.4575c-3e-3 1.9801-0.7909 3.8782-2.1911 5.2783-1.4001 1.4001-3.2982 2.1881-5.2782 2.1911zm-4.0353-1.8731h4.0353c1.4853 0 2.9099-0.5892 3.9612-1.6384s1.6435-2.4726 1.6466-3.9579v-3.5843h-9.6431z" fill="#2F2F3A"/>
  <path d="m24.559 24.698v-11.724h11.562v5.18c0.0015 0.8589-0.1663 1.7096-0.4939 2.5036-0.3277 0.7939-0.8086 1.5154-1.4154 2.1233s-1.3275 1.0901-2.1208 1.4191c-0.7934 0.329-1.6438 0.4984-2.5027 0.4984z" fill="#F2C94C"/>
  <path d="m29.531 25.635h-5.9084v-13.598h13.378v6.1166c0 1.982-0.7866 3.8831-2.187 5.2857-1.4005 1.4026-3.3003 2.1921-5.2824 2.1952zm-4.0353-1.8731h4.0353c1.4853-0.0031 2.9087-0.5953 3.9579-1.6466 1.0491-1.0513 1.6384-2.4759 1.6384-3.9612v-4.2782h-9.6316z" fill="#2F2F3A"/>
  <path d="m24.246 12.974h-11.505v11.724h11.505z" fill="#BD83CE"/>
  <path d="m25.183 25.635h-13.366v-13.598h13.366zm-11.562-1.8731h9.6432v-9.886h-9.5853z" fill="#2F2F3A"/>
  <path d="m0.93652 12.719v-5.2494c0-1.7326 0.68828-3.3943 1.9134-4.6194s2.8868-1.9134 4.6194-1.9134h4.9719v11.782z" fill="#40BE88"/>
  <path d="m13.378 13.598h-13.378v-6.1281c0.003058-1.9801 0.79099-3.8782 2.1911-5.2783 1.4001-1.4001 3.2982-2.1881 5.2783-2.1911h5.9084zm-11.505-1.8731h9.6894v-9.8513h-4.0931c-1.4842 0-2.9076 0.5896-3.9572 1.6391s-1.6391 2.4729-1.6391 3.9572z" fill="#2F2F3A"/>
  <path d="m24.559 12.719v-11.782h4.9719c1.7326 0 3.3942 0.68828 4.6194 1.9134 1.2251 1.2251 1.9134 2.8868 1.9134 4.6194v5.2494z" fill="#FF7474"/>
  <path d="m37 13.598h-13.378v-13.598h5.9084c1.9801 0.003058 3.8782 0.79099 5.2783 2.1911 1.4001 1.4001 2.188 3.2982 2.1911 5.2783zm-11.505-1.8731h9.6316v-4.255c0-1.4842-0.5896-2.9076-1.6391-3.9572s-2.473-1.6391-3.9572-1.6391h-4.0353z" fill="#2F2F3A"/>
  <path d="m24.246 0.93652h-11.505v11.724h11.505z" fill="#6776F9"/>
  <path d="m25.183 13.598h-13.366v-13.598h13.366zm-11.562-1.8731h9.6432v-9.8513h-9.5853z" fill="#2F2F3A"/>
  <path d="m0.93652 29.531v-4.5209h11.562v11.054h-5.0297c-1.7326 0-3.3943-0.6883-4.6194-1.9134s-1.9134-2.8868-1.9134-4.6194z" fill="#37C2E2"/>
  <path d="m13.378 37h-5.9084c-1.9801-3e-3 -3.8782-0.791-5.2783-2.1911s-2.1881-3.2982-2.1911-5.2783v-5.4575h13.378zm-11.505-11.054v3.5843c0 1.4843 0.5896 2.9077 1.6391 3.9572s2.4729 1.6391 3.9572 1.6391h4.0931v-9.1806z" fill="#2F2F3A"/>
  <path d="m12.441 12.974h-11.505v11.724h11.505z" fill="#F2994A"/>
  <path d="m13.378 25.635h-13.378v-13.598h13.378zm-11.505-1.8731h9.6894v-9.886h-9.6894z" fill="#2F2F3A"/>
 </g>
</svg>
