<svg width="35px" height="35px" xmlns="http://www.w3.org/2000/svg" viewBox="0 0 40 40">
    <circle cx="20" cy="20.169" r="20" fill="#f48024" paint-order="markers stroke fill" />
    <g fill="#fff">
        <path d="M10.174 22.123l2.103.02-.073 9.304h13.999v-9.27h2.216v11.53H10.163l.01-11.584z" />
        <path
            d="M13.604 27.623H24.57v2.318H13.604zM13.86 23.453l10.974 1.052-.23 2.364-10.973-1.052zM14.865 18.736l10.61 2.975-.65 2.286-10.61-2.975zM17.436 13.405l9.437 5.662-1.237 2.033-9.436-5.661zM22.804 8.357l6.42 8.901-1.943 1.384L20.86 9.74zM30.262 5.937l1.817 10.8-2.359.392-1.816-10.8z" />
    </g>
</svg>