<svg
   xmlns:dc="http://purl.org/dc/elements/1.1/"
   xmlns:cc="http://creativecommons.org/ns#"
   xmlns:rdf="http://www.w3.org/1999/02/22-rdf-syntax-ns#"
   xmlns:svg="http://www.w3.org/2000/svg"
   xmlns="http://www.w3.org/2000/svg"
   xmlns:sodipodi="http://sodipodi.sourceforge.net/DTD/sodipodi-0.dtd"
   xmlns:inkscape="http://www.inkscape.org/namespaces/inkscape"
   enable-background="new 0 0 40 40"
   id="Layer_1"
   version="1.1"
   viewBox="0 0 40 40"
   xml:space="preserve"
   sodipodi:docname="tumblr.svg"
   width="40"
   height="40"
   inkscape:version="0.92.2 (unknown)"><metadata
     id="metadata3790"><rdf:RDF><cc:Work
         rdf:about=""><dc:format>image/svg+xml</dc:format><dc:type
           rdf:resource="http://purl.org/dc/dcmitype/StillImage" /><dc:title></dc:title></cc:Work></rdf:RDF></metadata><defs
     id="defs3788" /><sodipodi:namedview
     pagecolor="#ffffff"
     bordercolor="#666666"
     borderopacity="1"
     objecttolerance="10"
     gridtolerance="10"
     guidetolerance="10"
     inkscape:pageopacity="0"
     inkscape:pageshadow="2"
     inkscape:window-width="1920"
     inkscape:window-height="993"
     id="namedview3786"
     showgrid="false"
     inkscape:zoom="6.6484375"
     inkscape:cx="14.13866"
     inkscape:cy="15.86839"
     inkscape:window-x="0"
     inkscape:window-y="24"
     inkscape:window-maximized="1"
     inkscape:current-layer="Layer_1" /><g
     id="g3781"
     transform="scale(0.3125)"><circle
       cx="64"
       cy="64"
       r="64"
       id="circle3779"
       style="fill:#35465d" /></g><path
     d="m 25.384062,26.72156 c -0.418437,0.20063 -1.21875,0.37344 -1.815625,0.39 -1.80125,0.0481 -2.150312,-1.265 -2.165312,-2.22 v -7.00375 h 4.517812 V 14.4825 H 21.419375 V 8.75 c 0,0 -3.2425,0 -3.295625,0 -0.05469,0 -0.149062,0.04844 -0.1625,0.168125 -0.192813,1.755313 -1.013438,4.834065 -4.4275,6.064375 v 2.90563 h 2.277188 v 7.35312 c 0,2.51531 1.856874,6.09094 6.758437,6.0075 1.653437,-0.0288 3.489687,-0.72094 3.896562,-1.31812 l -1.081875,-3.20907"
     id="path3783"
     inkscape:connector-curvature="0"
     style="fill:#ffffff;stroke-width:0.3125" /></svg>