<svg xmlns="http://www.w3.org/2000/svg" width="200mm" height="200mm" baseProfile="tiny"><path stroke="#000" stroke-width=".3" d="M0 0h10m0 0v10M0 0v10M10 0h10M10 0v10M20 0h10M20 10h10m0-10h10m0 0v10m0-10h10M40 10h10M40 0v10M50 0h10M50 10h10m0-10h10m0 0v10m0-10h10M70 0v10M80 0h10M80 10h10m0-10h10m0 0h10m0 0v10m-10 0h10m0-10h10m-10 0v10m10-10h10m-10 10h10m0-10h10m0 0v10m0-10h10m-10 0v10m10-10h10m-10 10h10m0-10h10m-10 10h10m0-10h10m0 0h10m-10 10h10m0-10h10m0 0v10M10 10v10M0 10v10m20-10v10M10 10v10m10-10h10m0 0v10M20 10v10m20-10v10M30 10v10m10-10h10m-10 0v10m10-10h10m0 0v10m0 0h10M60 10v10m10 0h10m0-10h10m0 0v10m0 0h10M90 10v10m10-10h10m0 0v10m0 0h10m-10-10v10m10-10h10m0 0v10m0 0h10m-10-10v10m20-10v10m-10 0h10m0-10h10m-10 0v10m10-10h10m0 0v10m-10 0h10m0 0h10m-10-10v10m10-10h10m0 0v10m10-10v10m-10 0h10m-10-10v10M0 30h10M0 20v10m20-10v10m-10 0h10m10-10v10M20 20v10m20-10v10M30 20v10m20-10v10M40 20v10m10 0h10M50 20v10m10-10h10M60 30h10m0-10h10m0 0v10m0 0h10M80 20v10m10-10h10m0 0v10m0-10v10m10-10h10m0 0v10m-10 0h10m0 0h10m-10-10v10m10-10h10m0 0v10m0-10h10m-10 10h10m-10-10v10m20-10v10m0-10h10m-10 0v10m10-10h10m0 0v10m0 0h10m-10-10v10m10-10h10m0 0v10M0 30h10M0 30v10m10-10h10M10 40h10m10-10v10m0 0h10M30 30v10m20-10v10m-10 0h10m0-10h10m-10 0v10m10-10h10m0 0v10m-10 0h10m0 0h10M70 30v10m10-10h10m0 0v10m10-10v10M90 30v10m20-10v10m-10-10v10m10-10h10m-10 0v10m10-10h10m-10 10h10m0 0h10m0-10h10m-10 10h10m10-10v10m-10 0h10m10-10v10m-10-10v10m20-10v10m-10-10v10m10-10h10m-10 0v10m20-10v10M10 40v10M0 40v10m10-10h10m-10 0v10m20-10v10m-10 0h10m0-10h10m-10 0v10m10-10h10M40 50h10m0 0h10m0-10h10m0 0v10m0-10h10m-10 0v10m20-10v10m-10 0h10m10-10v10M90 40v10m10 0h10m-10-10v10m20-10v10m-10 0h10m0-10h10m-10 0v10m10-10h10m-10 10h10m0-10h10m0 0v10m0-10h10m-10 0v10m20-10v10m-10 0h10m0 0h10m-10-10v10m20-10v10m-10 0h10m10-10v10m-10-10v10M10 50v10M0 50v10m20-10v10M10 50v10m10-10h10m-10 0v10m20-10v10m-10 0h10m0-10h10m0 0v10M40 50v10m10-10h10m-10 0v10m20-10v10m-10 0h10m10-10v10M70 50v10m10-10h10m0 0v10M80 50v10m20-10v10M90 50v10m10-10h10m-10 0v10m10-10h10m0 0v10m-10 0h10m0 0h10m-10-10v10m10-10h10m0 0v10m10-10v10m-10-10v10m20-10v10m-10-10v10m10-10h10m-10 0v10m10-10h10m0 0v10m0-10h10m-10 0v10m20-10v10m-10 0h10M10 60v10M0 70h10M0 60v10m20-10v10M10 60v10m10 0h10M20 60v10m10-10h10m0 0v10m10-10v10M40 60v10m10 0h10M50 60v10m10-10h10M60 70h10m10-10v10m-10 0h10m0 0h10M80 60v10m10 0h10m10-10v10m0-10h10m-10 0v10m10-10h10m-10 10h10m10-10v10m-10 0h10m0 0h10m-10-10v10m20-10v10m-10 0h10m10-10v10m-10-10v10m20-10v10m-10-10v10m10 0h10m-10-10v10m10-10h10m0 0v10M0 70h10M0 70v10m10 0h10m0-10h10m0 0v10m-10 0h10m10-10v10M30 70v10m10-10v10m10-10h10m0 0v10m0-10h10M60 80h10M60 70v10m10-10h10M70 80h10m0-10h10m0 0h10m0 0v10m10-10v10m-10 0h10m-10-10v10m20-10v10m-10-10v10m10-10h10m0 0v10m-10-10v10m10-10h10m-10 0v10m10-10h10m-10 10h10m0-10h10m-10 10h10m10-10v10m10-10v10m-10-10v10m10-10h10m-10 0v10m20-10v10m-10 0h10M0 90h10M0 80v10m10-10h10m0 0v10m0-10h10m-10 0v10m20-10v10m-10 0h10m10-10v10M40 80v10m10 0h10M50 80v10m10-10h10m0 0v10m0-10h10m-10 0v10m20-10v10m-10 0h10m10-10v10M90 80v10m10-10h10m-10 0v10m20-10v10m-10 0h10m0 0h10m-10-10v10m20-10v10m-10 0h10m0-10h10m-10 0v10m10-10h10m0 0v10m10-10v10m-10-10v10m10 0h10m-10-10v10m20-10v10m-10 0h10m0-10h10m0 0v10m-10-10v10M0 90h10M0 90v10m20-10v10m0 0h10M20 90v10m10-10h10m-10 10h10m10-10v10m-10 0h10m0-10h10m0 0v10M50 90v10m10 0h10M60 90v10m20-10v10m-10 0h10m0-10h10m-10 0v10m20-10v10m-10 0h10m0 0h10m-10-10v10m10-10h10m0 0v10m0-10h10m-10 0v10m10-10h10m-10 10h10m10-10v10m-10 0h10m10-10v10m-10-10v10m10 0h10m-10-10v10m10-10h10m-10 10h10m0-10h10m-10 10h10m10-10v10m-190 0v10M0 100v10m10 0h10m-10-10v10m10-10h10m-10 10h10m0-10h10m-10 10h10m0-10h10m-10 10h10m10-10h10m-10 10h10m0-10h10m0 0v10m-10 0h10m10-10v10m-10-10v10m10-10h10m-10 0v10m10-10h10m10 0v10m-10 0h10m10-10v10m-10-10v10m10-10h10m0 0v10m-10-10v10m10-10h10m-10 0v10m20-10v10m-10 0h10m0-10h10m-10 10h10m-10-10v10m10-10h10m0 0v10m0-10h10m-10 0v10m20-10v10m-10 0h10m-190 0v10M0 110v10m10-10h10m-10 0v10m10-10h10m-10 10h10m0-10h10m-10 10h10m0-10h10m0 0v10m10-10v10m-10-10v10m10-10h10m-10 0v10m10-10h10m-10 10h10m10-10v10m-10 0h10m10-10v10m-10-10v10m10 0h10m-10-10v10m10-10h10m-10 10h10m0 0h10m10-10v10m-10 0h10m10-10v10m-10-10v10m10-10h10m-10 0v10m10-10h10m-10 10h10m10-10v10m-10 0h10m10-10v10m-10-10v10m10-10h10m0 0v10m-10-10v10m-180 0v10M0 120v10m10 0h10m-10-10v10m10-10h10m-10 10h10m0-10h10m0 0v10m-10 0h10m0 0h10m-10-10v10m20-10v10m0 0h10m-10-10v10m10-10h10m0 0v10m0-10h10m0 0v10m-10-10v10m20-10v10m-10-10v10m10-10h10m-10 10h10m-10-10v10m10-10h10m0 0v10m0-10h10m-10 0v10m10-10h10m-10 10h10m10-10v10m-10 0h10m0-10v10m10-10h10m-10 10h10m0-10h10m0 0v10m0 0h10m-10-10v10m20-10v10m-190 0v10M0 130v10m10-10h10m-10 0v10m10-10h10m-10 10h10m0-10h10m-10 10h10m0-10h10m0 0v10m10-10v10m-10 0h10m-10-10v10m10-10h10m-10 0v10m20-10v10m-10 0h10m0 0h10m-10-10v10m10 0h10m0-10h10m10 0v10m-10 0h10m10-10v10m-10-10v10m10-10h10m-10 0v10m10-10h10m-10 10h10m10-10v10m-10 0h10m0-10h10m-10 0v10m20-10v10m0-10h10m-10 0v10m20-10v10m-10 0h10M0 140v10m20-10v10m-10 0h10m0-10h10m-10 10h10m-10-10v10m10-10h10m0 0v10m0 0h10m-10-10v10m10-10h10m0 0v10m10-10v10m-10-10v10m10-10h10m-10 10h10m-10-10v10m10-10h10m0 0h10m0 0v10m10-10v10m-10 0h10m-10-10v10m10-10h10m-10 0v10m20-10v10m-10 0h10m10-10v10m-10-10v10m10-10h10m0 0v10m-10-10v10m10-10h10m-10 0v10m20-10v10m-10 0h10m10-10v10m-10 0h10m-10-10v10m10 0h10m-10-10v10m10-10h10m0 0v10m-190 0v10M0 150v10m10-10h10m-10 10h10m-10-10v10m10-10h10m0 10h10m0-10h10m0 0v10m0 0h10m-10-10v10m20-10v10m-10 0h10m0-10h10m-10 0v10m20-10v10m-10 0h10m0 0h10m-10-10v10m10-10h10m0 0v10m0 0h10m-10-10v10m10-10h10m0 0v10m0 0h10m-10-10v10m20-10v10m10-10v10m-10-10v10m10-10h10m-10 0v10m10-10h10m0 0v10m0-10h10m-10 0v10m20-10v10m-10 0h10m-190 0v10M0 160v10m10-10h10m-10 0v10m20-10v10m-10 0h10m0-10h10m-10 0v10m20-10v10m-10 0h10m0-10h10m-10 10h10m-10-10v10m10-10h10m0 0v10m0-10v10m10-10h10m0 0v10m0-10h10m0 0v10m-10-10v10m10 0h10m-10-10v10m10-10h10m-10 10h10m10-10v10m-10 0h10m0-10h10m-10 0v10m20-10v10m-10 0h10m0 0h10m-10-10v10m20-10v10m-10 0h10m10-10v10m-10-10v10m10 0h10m-10-10v10m10-10h10m0 0v10m-190 0v10M0 170v10m20-10v10m-10-10v10m10-10h10m-10 10h10m-10-10v10m10 0h10m0-10h10m-10 10h10m0-10h10m0 0v10m0-10v10m20-10v10m-10 0h10m10-10v10m-10-10v10m10 0h10m-10-10v10m10-10h10m0 0v10m0-10h10m-10 0v10m10-10h10m0 0v10m10-10v10m-10-10v10m10-10h10m-10 0v10m10-10h10m-10 10h10m0-10h10m0 0v10m0-10v10m10-10h10m0 0v10m-10 0h10m10-10v10m-10-10v10m-180 0v10M0 180v10m10 0h10m-10-10v10m10-10h10m0 0v10m0-10h10m-10 0v10m10-10h10m0 0v10m10-10v10m-10-10v10m10 0h10m-10-10v10m10-10h10m0 0v10m-10 0h10m0 0h10m-10-10v10m10-10h10m0 0v10m0-10v10m20-10v10m-10 0h10m0 0h10m-10-10v10m20-10v10m-10 0h10m0 0h10m-10-10v10m10-10h10m0 0v10m10-10v10m-10-10v10m20-10v10m-10-10v10m10-10h10m-10 0v10m20-10v10m-10 0h10M0 200h10M0 190v10m10-10h10m-10 10h10m10-10v10m-10 0h10m10-10v10m-10 0h10m-10-10v10m10 0h10m-10-10v10m10 0h10m0-10h10m-10 10h10m0-10h10m-10 10h10m0-10h10m-10 10h10m10-10v10m-10 0h10m0 0h10m-10-10v10m10-10h10m-10 10h10m0-10h10m-10 10h10m0-10h10m-10 10h10m0-10h10m-10 10h10m10-10v10m-10 0h10m10-10v10m-10 0h10m-10-10v10m10 0h10m-10-10v10m10 0h10m0-10h10m0 0v10m-10 0h10"/><path fill="none" stroke="red" stroke-linecap="round" stroke-linejoin="round" stroke-width=".5" d="M5.5 5.5v20h10v-20h20v30h10v-20h10v10h20v10h10v10h-10v20h-20v-10h10v-10h-30v10h-10v10h10v20h-10v10h20v-20h10v10h10v10h10v-10h10v-10h10v20h-10v20h-20v10h10v10h-10v20h-10v-10h-10v-10h-30v10h-10v50h20v-10h-10v-20h10v-10h20v10h-10v10h20v20h40v-10h-10v-20h-10v-10h10v-10h10v10h10v10h20v-10h-10v-10h10v-20h20v-20h10v-20h-10v10h-20v20h-20v-10h10v-10h-10v-10h10v-20h20v-10h-10v-10h20v20h10v-20h10v-20h10v20h10v-10h10v20h-10v10h10v10h-10v10h-10v-30h-10v40h30v10h-10v20h10v10h-10v10h10v10h-10v10h10v20h-10v10h10"/><circle cx="5" cy="5" r="1.67" fill="green"/><path fill="#00f" d="M193.33 193.33h3.33v3.33h-3.33z"/></svg>