<?xml version="1.0" encoding="UTF-8"?>
<svg width="40" height="40" version="1.1" viewBox="0 0 3.9508 3.9514" xmlns="http://www.w3.org/2000/svg">
    <circle cx="1.9754" cy="1.9757" r="1.9757" fill="#ffd900" stroke-opacity=".48988" stroke-width=".49392"/>
    <path transform="matrix(.098784 0 0 .098784 -.00028895 0)" d="m20 40a20 20 0 0 0 0.20312-0.001953 20 20 0 0 0 0.375-0.005859 20 20 0 0 0 0.37695-0.015626 20 20 0 0 0 0.375-0.021484 20 20 0 0 0 0.375-0.027344 20 20 0 0 0 0.375-0.035156 20 20 0 0 0 0.37305-0.042969 20 20 0 0 0 0.37305-0.050781 20 20 0 0 0 0.37109-0.05664 20 20 0 0 0 0.37109-0.0625 20 20 0 0 0 0.36914-0.070313 20 20 0 0 0 0.36719-0.078125 20 20 0 0 0 0.36719-0.083984 20 20 0 0 0 0.36523-0.091797 20 20 0 0 0 0.36328-0.097657 20 20 0 0 0 0.36133-0.10547 20 20 0 0 0 0.35742-0.11133 20 20 0 0 0 0.35742-0.11914 20 20 0 0 0 0.35547-0.125 20 20 0 0 0 0.35156-0.13086 20 20 0 0 0 0.34961-0.13867 20 20 0 0 0 0.34766-0.14453 20 20 0 0 0 0.34375-0.15234 20 20 0 0 0 0.3418-0.1582 20 20 0 0 0 0.33789-0.16406 20 20 0 0 0 0.33594-0.16992 20 20 0 0 0 0.33203-0.17773 20 20 0 0 0 0.32812-0.18164 20 20 0 0 0 0.32422-0.18945 20 20 0 0 0 0.32227-0.19531 20 20 0 0 0 0.31641-0.20117 20 20 0 0 0 0.31445-0.20898 20 20 0 0 0 0.31055-0.21289 20 20 0 0 0 0.30469-0.21875 20 20 0 0 0 0.30273-0.22461 20 20 0 0 0 0.29688-0.23047 20 20 0 0 0 0.29297-0.23438 20 20 0 0 0 0.28906-0.24219 20 20 0 0 0 0.2832-0.24609 20 20 0 0 0 0.2793-0.25195 20 20 0 0 0 0.27344-0.25781 20 20 0 0 0 0.26953-0.26172 20 20 0 0 0 0.26562-0.26758 20 20 0 0 0 0.25977-0.27148 20 20 0 0 0 0.25391-0.27734 20 20 0 0 0 0.24805-0.28125 20 20 0 0 0 0.24414-0.28711 20 20 0 0 0 0.23828-0.29102 20 20 0 0 0 0.23242-0.29492 20 20 0 0 0 0.22852-0.29883 20 20 0 0 0 0.2207-0.30469 20 20 0 0 0 0.2168-0.30859 20 20 0 0 0 0.20898-0.31055 20 20 0 0 0 0.20508-0.31641 20 20 0 0 0 0.19726-0.32031 20 20 0 0 0 0.19141-0.32227 20 20 0 0 0 0.18555-0.32812 20 20 0 0 0 0.17969-0.33008 20 20 0 0 0 0.17383-0.33398 20 20 0 0 0 0.16797-0.33594 20 20 0 0 0 0.16016-0.33984 20 20 0 0 0 0.1543-0.34375 20 20 0 0 0 0.14844-0.3457 20 20 0 0 0 0.14062-0.34766 20 20 0 0 0 0.13477-0.35156 20 20 0 0 0 0.12891-0.35352 20 20 0 0 0 0.12109-0.35547 20 20 0 0 0 0.11523-0.35938 20 20 0 0 0 0.10742-0.35938 20 20 0 0 0 0.10156-0.36133 20 20 0 0 0 0.095703-0.36523 20 20 0 0 0 0.085938-0.36524 20 20 0 0 0 0.082031-0.36719 20 20 0 0 0 0.074219-0.36914 20 20 0 0 0 0.066406-0.36914 20 20 0 0 0 0.058594-0.37109 20 20 0 0 0 0.052734-0.37305 20 20 0 0 0 0.009766-0.083984c-1.6019 0.47461-5.1336 2.6348-6.1387 2.6348-0.85219 0 0.45898-5.7116 0.45898-10.822 0-1.293-0.57653-3.2324-1.5898-3.2324-2.4789 0-2.78 2.2227-8.1582 2.2227-8.5228 0-9.5508-5.7402-13.871-5.7402-3.7814 0-3.6836 8.9323-3.6836 10.107 0 1.1755 0.28973 5.0957-1.5078 5.0957-1.2076 0-3.3212-1.2442-5.3398-2.3145a20 20 0 0 0 0.0019531 0.085937 20 20 0 0 0 0.015625 0.37695 20 20 0 0 0 0.021484 0.375 20 20 0 0 0 0.027344 0.375 20 20 0 0 0 0.035156 0.375 20 20 0 0 0 0.042969 0.37305 20 20 0 0 0 0.050781 0.37305 20 20 0 0 0 0.056641 0.37109 20 20 0 0 0 0.0625 0.37109 20 20 0 0 0 0.070312 0.36914 20 20 0 0 0 0.078125 0.36719 20 20 0 0 0 0.083984 0.36719 20 20 0 0 0 0.091797 0.36523 20 20 0 0 0 0.097656 0.36328 20 20 0 0 0 0.10547 0.36133 20 20 0 0 0 0.11133 0.35742 20 20 0 0 0 0.11914 0.35742 20 20 0 0 0 0.125 0.35547 20 20 0 0 0 0.13086 0.35156 20 20 0 0 0 0.13867 0.34961 20 20 0 0 0 0.14453 0.34766 20 20 0 0 0 0.15234 0.34375 20 20 0 0 0 0.1582 0.3418 20 20 0 0 0 0.16406 0.33789 20 20 0 0 0 0.16992 0.33594 20 20 0 0 0 0.17773 0.33203 20 20 0 0 0 0.18164 0.32812 20 20 0 0 0 0.18945 0.32422 20 20 0 0 0 0.19531 0.32227 20 20 0 0 0 0.20117 0.31641 20 20 0 0 0 0.20898 0.31445 20 20 0 0 0 0.21289 0.31055 20 20 0 0 0 0.21875 0.30469 20 20 0 0 0 0.22461 0.30273 20 20 0 0 0 0.23047 0.29688 20 20 0 0 0 0.23438 0.29297 20 20 0 0 0 0.24219 0.28906 20 20 0 0 0 0.24609 0.2832 20 20 0 0 0 0.25195 0.2793 20 20 0 0 0 0.25781 0.27344 20 20 0 0 0 0.26172 0.26953 20 20 0 0 0 0.26758 0.26562 20 20 0 0 0 0.27148 0.25977 20 20 0 0 0 0.27734 0.25391 20 20 0 0 0 0.28125 0.24805 20 20 0 0 0 0.28711 0.24414 20 20 0 0 0 0.29102 0.23828 20 20 0 0 0 0.29492 0.23242 20 20 0 0 0 0.29883 0.22852 20 20 0 0 0 0.30469 0.2207 20 20 0 0 0 0.30859 0.2168 20 20 0 0 0 0.31055 0.20898 20 20 0 0 0 0.31641 0.20508 20 20 0 0 0 0.32031 0.19726 20 20 0 0 0 0.32227 0.19141 20 20 0 0 0 0.32813 0.18555 20 20 0 0 0 0.33008 0.17969 20 20 0 0 0 0.33398 0.17383 20 20 0 0 0 0.33594 0.16797 20 20 0 0 0 0.33984 0.16016 20 20 0 0 0 0.34375 0.1543 20 20 0 0 0 0.3457 0.14844 20 20 0 0 0 0.34766 0.14062 20 20 0 0 0 0.35156 0.13477 20 20 0 0 0 0.35352 0.12891 20 20 0 0 0 0.35547 0.12109 20 20 0 0 0 0.35938 0.11523 20 20 0 0 0 0.35938 0.10742 20 20 0 0 0 0.36133 0.10156 20 20 0 0 0 0.36523 0.095703 20 20 0 0 0 0.36524 0.085938 20 20 0 0 0 0.36719 0.082031 20 20 0 0 0 0.36914 0.074219 20 20 0 0 0 0.36914 0.066406 20 20 0 0 0 0.37109 0.058594 20 20 0 0 0 0.37305 0.052734 20 20 0 0 0 0.37305 0.046875 20 20 0 0 0 0.375 0.039062 20 20 0 0 0 0.375 0.03125 20 20 0 0 0 0.375 0.025391 20 20 0 0 0 0.375 0.017578 20 20 0 0 0 0.375 0.009766 20 20 0 0 0 0.37695 0.003906z" fill="#78c800" stroke-width=".21172"/>
    <g stroke-width=".020915">
        <path d="m3.0046 1.4956c-0.076926 0-0.095519 0.039697-0.12283 0.014892-0.012403-0.012403 0.053375-0.040952 0.053375-0.053354 0-0.00621-0.00996-0.00496-0.023571-0.00496-0.080649 0-0.23948 0.11788-0.26184 0.11788-0.00993 0-0.02606 0.00249-0.02606-0.012403 0-0.033506 0.11292-0.062034 0.03474-0.062034-0.078181 0-0.19357 0.10052-0.31394 0.10052-0.24818 0-0.44794-0.1948-0.44794-0.14643 0 0.01738 0.028549 0.044675 0.047143 0.079415 0 0 0.011169 0.05212-0.00993 0.032272-0.22773-0.2277-0.45539-0.28292-0.45539-0.28292s-0.017381 0-0.017381 0.00745c0 0.02606 0.049632 0.0608 0.049632 0.070735 0 0.00993-0.00621 0.016126-0.016126 0.016126-0.048398 0-0.083159-0.093072-0.27794-0.093072-0.29411 0-0.37511 0.46283-0.37511 0.84254 0 0.53852 0.34654 0.70963 0.63318 0.70963 0.22733 0 0.47072-0.134 0.57257-0.33079l0.30252 0.023049s0.14831 0.28108 0.41508 0.28108c0.25037 0 0.4681-0.15841 0.4681-0.70781 4.24e-5 -0.57699-0.15132-0.60182-0.22829-0.60182z" fill="#8EE000"/>
        <ellipse cx="1.4437" cy="2.1448" rx=".3871" ry=".47065" fill="#FFF"/>
        <path d="m3.0913 2.2337c-0.012256 0.22864-0.16686 0.40914-0.34529 0.40314-0.17845-0.0060026-0.3132-0.19623-0.30095-0.42489 0.012256-0.22864 0.16686-0.40914 0.34531-0.40314 0.17845 6e-3 0.31318 0.19623 0.30093 0.42489z" fill="#FFF"/>
        <ellipse cx="1.4357" cy="2.1448" rx=".21264" ry=".25855" fill="#3F3F3F"/>
        <ellipse cx="1.2979" cy="1.9808" rx=".099598" ry=".10761" fill="#FFF"/>
        <path d="m2.9455 2.2336c-0.0097464 0.13442-0.099577 0.23946-0.20066 0.23463-0.10108-0.0048314-0.17516-0.11773-0.16544-0.25215 0.0097255-0.13442 0.099556-0.23946 0.20064-0.23463s0.17516 0.11773 0.16546 0.25215z" fill="#3F3F3F"/>
        <path d="m1.9384 2.6873s-0.062181 0.52037 0.10809 0.51677c0.17027-0.0036 0.16301-0.25295 0.16195-0.25592-0.00105-0.00299-0.27004-0.26085-0.27004-0.26085z" fill="#71B200"/>
        <path d="m2.7344 2.0771c0.00174 0.054798-0.036455 0.10046-0.085355 0.10196-0.048879 0.00151-0.089893-0.041705-0.091629-0.096523-0.00174-0.054818 0.036476-0.10046 0.085355-0.10196 0.048858-0.00148 0.089893 0.041726 0.091629 0.096523z" fill="#FFF"/>
        <path d="m1.9385 2.6341s-0.036601 0.38051 0.14864 0.38051c0.18522 0 0.27733-0.15197 0.27733-0.28842 0-0.13645-0.42598-0.092089-0.42598-0.092089z" fill="#F49000"/>
        <path d="m2.2169 2.4089c0.13476 0 0.23628 0.15642 0.23628 0.31118 0 0.15475-0.12647 0.31283-0.16807 0.31283-0.0416 0-0.34778-0.28455-0.34778-0.40603s0.11648-0.21798 0.27957-0.21798z" fill="#FFC200"/>
        <ellipse transform="rotate(-86.836)" cx="-2.3736" cy="2.347" rx=".048816" ry=".089517" fill="#FFF3B8"/>
        <metadata>
            <rdf:RDF xmlns:rdf="http://www.w3.org/1999/02/22-rdf-syntax-ns#" xmlns:rdfs="http://www.w3.org/2000/01/rdf-schema#" xmlns:dc="http://purl.org/dc/elements/1.1/">
                <rdf:Description about="https://iconscout.com/legal#licenses" dc:title="duolingo-symbol-icon" dc:description="duolingo-symbol-icon" dc:publisher="Iconscout" dc:date="2017-07-12" dc:format="image/svg+xml" dc:language="en">
                    <dc:creator>
                        <rdf:Bag>
                            <rdf:li>
                                Icon Mafia
                            </rdf:li>
                        </rdf:Bag>
                    </dc:creator>
                </rdf:Description>
            </rdf:RDF>
        </metadata>
    </g>
</svg>
