<?xml version="1.0" encoding="UTF-8" standalone="no"?>
<!-- Creator: CorelDRAW X6 -->

<svg
   xmlns:dc="http://purl.org/dc/elements/1.1/"
   xmlns:cc="http://creativecommons.org/ns#"
   xmlns:rdf="http://www.w3.org/1999/02/22-rdf-syntax-ns#"
   xmlns:svg="http://www.w3.org/2000/svg"
   xmlns="http://www.w3.org/2000/svg"
   xmlns:sodipodi="http://sodipodi.sourceforge.net/DTD/sodipodi-0.dtd"
   xmlns:inkscape="http://www.inkscape.org/namespaces/inkscape"
   xml:space="preserve"
   width="40"
   height="40"
   version="1.1"
   style="clip-rule:evenodd;fill-rule:evenodd;image-rendering:optimizeQuality;shape-rendering:geometricPrecision;text-rendering:geometricPrecision"
   viewBox="0 0 416.66044 416.69371"
   id="svg190"
   sodipodi:docname="github.svg"
   inkscape:version="0.92.2 (unknown)"><metadata
     id="metadata194"><rdf:RDF><cc:Work
         rdf:about=""><dc:format>image/svg+xml</dc:format><dc:type
           rdf:resource="http://purl.org/dc/dcmitype/StillImage" /><dc:title></dc:title></cc:Work></rdf:RDF></metadata><sodipodi:namedview
     pagecolor="#ffffff"
     bordercolor="#666666"
     borderopacity="1"
     objecttolerance="10"
     gridtolerance="10"
     guidetolerance="10"
     inkscape:pageopacity="0"
     inkscape:pageshadow="2"
     inkscape:window-width="1920"
     inkscape:window-height="993"
     id="namedview192"
     showgrid="false"
     units="px"
     inkscape:zoom="1.25"
     inkscape:cx="549.4664"
     inkscape:cy="308.0132"
     inkscape:window-x="0"
     inkscape:window-y="24"
     inkscape:window-maximized="1"
     inkscape:current-layer="svg190" /><defs
     id="defs4"><style
       type="text/css"
       id="style2"><![CDATA[
    .str0 {stroke:#2E85BE;stroke-width:13.8898;stroke-linecap:round}
    .str1 {stroke:#2E85BE;stroke-width:13.8898;stroke-linecap:round;stroke-dasharray:13.338583 26.677165}
    .fil3 {fill:none;fill-rule:nonzero}
    .fil1 {fill:#323030}
    .fil5 {fill:#FEFEFE}
    .fil4 {fill:#0077BD;fill-rule:nonzero}
    .fil2 {fill:#323030;fill-rule:nonzero}
    .fil0 {fill:#373435;fill-rule:nonzero}
    .fil6 {fill:#FEFEFE;fill-rule:nonzero}
   ]]></style></defs><path
     style="fill:#323030;stroke-width:0.91888422"
     inkscape:connector-curvature="0"
     id="path9"
     d="m 207.41239,9.758728 c -114.72844,0 -207.429025,92.914142 -207.429025,207.906902 0,91.9942 59.658791,170.18928 142.263265,197.78754 10.0961,1.83988 13.76742,-4.59971 13.76742,-10.11936 0,-4.59971 0,-18.39884 0,-34.9578 C 98.190907,383.2552 86.259155,342.77775 86.259155,342.77775 77.08088,318.85925 63.313466,312.41966 63.313466,312.41966 c -19.274379,-12.87919 1.835655,-12.87919 1.835655,-12.87919 21.110034,1.83989 32.123969,21.15867 32.123969,21.15867 18.35654,32.19797 48.64485,22.99855 60.57661,17.4789 1.83565,-13.79913 7.34262,-22.99855 12.84959,-27.59826 -45.89138,-5.51966 -94.536238,-22.99855 -94.536238,-103.03351 0,-22.99855 8.260448,-41.39739 21.110038,-56.11647 -1.835652,-5.51965 -9.17828,-26.67832 1.835644,-55.196521 0,0 17.438726,-5.519652 56.905316,21.158671 16.52089,-4.59971 33.95961,-7.35954 52.31616,-7.35954 17.43873,0 35.79528,2.75983 52.31618,7.35954 39.46658,-26.678323 56.9053,-21.158671 56.9053,-21.158671 11.01393,28.518201 4.58914,49.676871 1.83566,55.196521 13.76742,14.71908 21.11003,33.11792 21.11003,56.11647 0,80.03496 -48.64486,97.51385 -94.53624,103.03351 7.34263,6.43959 13.76742,19.31878 13.76742,38.63756 0,27.59826 0,50.59681 0,57.03641 0,5.51965 3.67131,11.95924 14.68524,10.11936 82.60448,-27.59826 142.26327,-105.79333 142.26327,-197.78754 0,-114.99275 -92.70059,-207.9069 -207.42903,-207.9069 z"
     class="fil1" /></svg>