<?xml version="1.0" encoding="UTF-8" standalone="no"?>
<svg
   xmlns:dc="http://purl.org/dc/elements/1.1/"
   xmlns:cc="http://creativecommons.org/ns#"
   xmlns:rdf="http://www.w3.org/1999/02/22-rdf-syntax-ns#"
   xmlns:svg="http://www.w3.org/2000/svg"
   xmlns="http://www.w3.org/2000/svg"
   xmlns:sodipodi="http://sodipodi.sourceforge.net/DTD/sodipodi-0.dtd"
   xmlns:inkscape="http://www.inkscape.org/namespaces/inkscape"
   enable-background="new 0 0 40 40"
   id="Layer_1"
   version="1.1"
   viewBox="0 0 40 40"
   xml:space="preserve"
   sodipodi:docname="gmail.svg"
   width="40"
   height="40"
   inkscape:version="0.92.2 (unknown)"><metadata
     id="metadata4001"><rdf:RDF><cc:Work
         rdf:about=""><dc:format>image/svg+xml</dc:format><dc:type
           rdf:resource="http://purl.org/dc/dcmitype/StillImage" /><dc:title></dc:title></cc:Work></rdf:RDF></metadata><defs
     id="defs3999" /><sodipodi:namedview
     pagecolor="#ffffff"
     bordercolor="#666666"
     borderopacity="1"
     objecttolerance="10"
     gridtolerance="10"
     guidetolerance="10"
     inkscape:pageopacity="0"
     inkscape:pageshadow="2"
     inkscape:window-width="1920"
     inkscape:window-height="993"
     id="namedview3997"
     showgrid="false"
     inkscape:zoom="1.73"
     inkscape:cx="12.727932"
     inkscape:cy="94.150289"
     inkscape:window-x="0"
     inkscape:window-y="24"
     inkscape:window-maximized="1"
     inkscape:current-layer="Layer_1" /><g
     id="g3994"
     transform="matrix(0.08048119,0,0,0.07972686,-0.68389579,-0.49327219)"><path
       d="M 257.1,507.9 C 119.2,507.9 7.9,395.4 8.5,255.5 9.1,116.9 120.9,4.8 259.6,6.2 395.6,7.5 506.6,119 505.5,259.3 504.4,397.1 393.9,507.5 257.1,507.9 Z M 257,25.9 C 132.9,25.5 29.3,126.6 28.1,254.5 26.8,384.8 130.9,486.9 254.5,488.2 380.4,489.5 485.2,387.6 485.8,259 486.5,129.4 384.3,25.9 257,25.9 Z"
       id="path3926"
       inkscape:connector-curvature="0"
       style="fill:#e65c4f" /><path
       d="m 388.1,143 c 13.4,-1.4 26,9.3 26.9,22.9 0.2,3.6 0,7.3 0,11 -1.2,0 -2.1,0.8 -3.1,1.5 -11,7.9 -21.9,15.7 -32.9,23.6 -36.7,25.2 -73.4,50.3 -110,75.6 -3.8,2.6 -8.1,4.6 -11.1,8.3 -1.7,0.3 -2.8,-0.8 -4,-1.7 -29.6,-20.6 -59.3,-41.3 -88.9,-61.9 -10.1,-7 -20.1,-14 -31,-21.5 0,2.7 0,4.5 0,6.3 0,28.6 0,57.3 0,85.9 0,25.3 0.1,50.6 0.2,75.9 0,0.7 -0.1,1.4 -0.1,2.1 -16.6,3.2 -30.7,-4.7 -34.4,-19.4 -0.5,-2.1 -0.7,-4.3 -0.7,-6.4 0,-58.7 0.1,-117.5 -0.1,-176.2 -0.1,-14.9 13.2,-28.1 27.1,-26 0.5,0.5 0.9,1 1.4,1.4 42.1,31.2 84.2,62.4 126.2,93.6 2.5,1.9 4,1.6 6.3,-0.1 26.2,-19.4 52.5,-38.7 78.7,-58 16.5,-12.2 33,-24.6 49.5,-36.9 z"
       id="path3928"
       inkscape:connector-curvature="0"
       style="fill:#e65a4d" /><path
       d="m 134.1,369 c -0.1,-25.3 -0.1,-50.6 -0.2,-75.9 0,-28.6 0,-57.3 0,-85.9 0,-1.8 0,-3.5 0,-6.3 10.8,7.5 20.9,14.5 31,21.5 29.6,20.6 59.3,41.3 88.9,61.9 1.2,0.8 2.3,1.9 4,1.7 0.2,2.2 2.2,2.8 3.7,3.8 34,23.6 68,47 101.9,70.8 4.3,3 9.3,5.2 12.6,9.6 -1,1.3 -2.4,1 -3.7,1 -78.8,0 -157.6,-0.1 -236.4,-0.1 0.7,-1 1.4,-1.9 2.1,-2.9 2.2,-0.7 4.2,-1.6 5,-4 4.2,-0.6 6.7,-3.6 9.3,-6.5 -3.6,1.5 -7,3.1 -9.5,6.3 -2.2,0.7 -4.2,1.6 -5,4 -1.2,0.2 -2.4,0.6 -3.7,1 z M 194,329 c 0.3,0 0.6,0 1,0 1.3,-0.7 2.9,-1 3,-3 0.8,0 1.6,-0.2 2,-1 0.3,-0.3 0.7,-0.7 1,-1 0.8,0 1.6,-0.2 2,-1 0.1,-0.2 0.3,-0.3 0.4,-0.5 -0.2,0.1 -0.3,0.3 -0.5,0.4 -0.8,0 -1.6,0.2 -2,1 -0.3,0.3 -0.7,0.7 -1,1 -0.8,0 -1.6,0.2 -2,1 -1.4,0 -2.4,0.7 -3,2 -0.3,0.4 -0.6,0.7 -0.9,1.1 -0.2,0.1 -0.4,0.2 -0.5,0.4 0.2,-0.1 0.4,-0.2 0.5,-0.4 z m -6,4 c 0.8,0 1.6,-0.2 2,-1 0.8,-0.1 1.6,-0.2 1.5,-1.2 0,-0.1 -0.2,-0.3 -0.3,-0.3 -1.1,-0.1 -1.2,0.7 -1.3,1.5 -0.8,0 -1.5,0.1 -1.9,1 -0.4,0.3 -0.7,0.6 -1.1,0.9 -0.8,0 -1.6,0.2 -2,1 -0.3,0.3 -0.7,0.7 -1,1 -0.8,0 -1.6,0.2 -2,1 -1.4,0.1 -2.4,0.7 -3,2 -0.3,0.3 -0.6,0.7 -1,1 -0.1,0.2 -0.3,0.3 -0.4,0.5 0.2,-0.1 0.3,-0.3 0.5,-0.4 0.8,0 1.6,-0.2 2,-1 1.2,-0.1 1.9,-0.7 2,-2 0.8,0 1.6,-0.2 2,-1 0.3,-0.3 0.7,-0.7 1,-1 0.8,0 1.6,-0.2 2,-1 0.4,-0.3 0.7,-0.6 1,-1 z m -16,11 c -0.8,0.1 -1.6,0.2 -1.5,1.3 0,0.1 0.2,0.3 0.3,0.3 1,0 1.1,-0.8 1.2,-1.6 0.9,0.1 1.6,-0.1 2.1,-0.9 0.8,-0.1 1.6,-0.2 1.5,-1.3 0,-0.1 -0.2,-0.3 -0.3,-0.3 -1.1,-0.1 -1.2,0.7 -1.3,1.5 -0.9,0 -1.6,0.2 -2,1 z m -13.1,8.9 c -1.4,0.1 -2.4,0.8 -3,2 -0.7,0.2 -1.6,0.3 -1.5,1.3 0,0.1 0.2,0.3 0.3,0.3 1,0.1 1.2,-0.7 1.4,-1.5 1.4,0 2.8,-0.2 3,-2 0.8,0 1.5,-0.2 2,-1 1.4,-0.1 2.4,-0.8 3,-2 0.7,-0.2 1.6,-0.2 1.5,-1.3 0,-0.1 -0.2,-0.3 -0.3,-0.3 -1.1,-0.1 -1.2,0.7 -1.3,1.5 -1.4,0 -2.8,0.1 -3,2 -0.9,0.1 -1.6,0.3 -2.1,1 z m 9.8,-5.7 c -0.1,-0.3 -0.1,-0.7 -0.3,-0.8 -0.2,-0.1 -0.6,0 -0.8,0.2 -0.3,0.4 -0.2,0.9 0.4,0.9 0.1,0.1 0.4,-0.1 0.7,-0.3 z"
       id="path3930"
       inkscape:connector-curvature="0"
       style="fill:#e6e3d6" /><path
       d="m 388.1,143 c -16.5,12.3 -33,24.6 -49.6,36.9 -26.2,19.4 -52.5,38.6 -78.7,58 -2.4,1.8 -3.8,2 -6.3,0.1 -42,-31.3 -84.1,-62.4 -126.2,-93.6 -0.5,-0.4 -0.9,-0.9 -1.4,-1.4 54.6,0 109.2,-0.1 163.9,-0.1 32.7,0.1 65.5,0.1 98.3,0.1 z"
       id="path3932"
       inkscape:connector-curvature="0"
       style="fill:#f6f4ec" /><path
       d="m 376,370 c -3.3,-4.4 -8.3,-6.6 -12.6,-9.6 -33.9,-23.7 -68,-47.2 -101.9,-70.8 -1.4,-1 -3.4,-1.6 -3.7,-3.8 3,-3.7 7.3,-5.7 11.1,-8.3 36.6,-25.3 73.3,-50.4 110,-75.6 0,56.3 0,112.6 0.1,168.9 -1,-0.1 -2,-0.5 -3,-0.8 z"
       id="path3934"
       inkscape:connector-curvature="0"
       style="fill:#b6b5ac" /><path
       d="m 379.1,371 c 0,-56.3 0,-112.6 -0.1,-168.9 11,-7.9 21.9,-15.7 32.9,-23.6 0.9,-0.7 1.8,-1.5 3.1,-1.5 0.1,18.5 0.2,36.9 0.2,55.4 0,36.1 0,72.2 0,108.3 0,2.5 0,5 -0.1,7.5 -0.6,12.4 -6.6,19.4 -18.6,21.7 -5.8,1.1 -11.6,1.8 -17.4,1.1 z"
       id="path3936"
       inkscape:connector-curvature="0"
       style="fill:#b13a30" /><path
       d="m 138.1,368.1 c -0.7,1 -1.4,1.9 -2.1,2.9 -0.7,0 -1.3,0 -2,0.1 0,-0.7 0.1,-1.4 0.1,-2.1 1.3,-0.4 2.5,-0.7 3.8,-1.1 0,0 0.2,0.2 0.2,0.2 z"
       id="path3938"
       inkscape:connector-curvature="0"
       style="fill:#c1c0b6" /><path
       d="m 142.9,363.9 c 2.5,-3.1 5.9,-4.8 9.5,-6.3 -2.6,2.9 -5.1,5.9 -9.3,6.5 z"
       id="path3940"
       inkscape:connector-curvature="0"
       style="fill:#c1c0b6" /><path
       d="m 143.1,364.1 c -0.9,2.4 -2.9,3.3 -5,4 0,0 -0.2,-0.2 -0.2,-0.2 0.8,-2.4 2.9,-3.3 5,-4 0,0 0.2,0.2 0.2,0.2 z"
       id="path3942"
       inkscape:connector-curvature="0"
       style="fill:#c1c0b6" /><path
       d="m 198,326 c -0.1,1.9 -1.8,2.2 -3,3 0,-0.3 0,-0.7 0,-1 0.6,-1.3 1.6,-2 3,-2 0,0 0,0 0,0 z"
       id="path3944"
       inkscape:connector-curvature="0"
       style="fill:#c5c3b9" /><path
       d="m 178.9,339 c 0.6,-1.3 1.6,-2 3,-2 l 0.1,0.1 c 0,1.3 -0.7,1.9 -2,2 -0.3,-0.1 -0.7,-0.1 -1.1,-0.1 z"
       id="path3946"
       inkscape:connector-curvature="0"
       style="fill:#c3c2b8" /><path
       d="m 164.1,350.1 c -0.6,1.3 -1.6,1.9 -3,2 0,0 -0.1,-0.1 -0.1,-0.1 0.2,-1.9 1.6,-2 3,-2 z"
       id="path3948"
       inkscape:connector-curvature="0"
       style="fill:#c1c0b6" /><path
       d="m 155.9,354.9 c 0.6,-1.2 1.6,-1.9 3,-2 l 0.1,0.2 c -0.2,1.9 -1.5,2 -3,2 z"
       id="path3950"
       inkscape:connector-curvature="0"
       style="fill:#c1c0b6" /><path
       d="m 173.9,342.9 c 0.1,-0.8 0.3,-1.6 1.3,-1.5 0.1,0 0.3,0.2 0.3,0.3 0,1.1 -0.8,1.1 -1.5,1.3 z"
       id="path3952"
       inkscape:connector-curvature="0"
       style="fill:#c1c0b6" /><path
       d="m 172,344.1 c -0.1,0.8 -0.2,1.6 -1.3,1.5 -0.1,0 -0.3,-0.2 -0.3,-0.3 0,-1.2 0.8,-1.2 1.6,-1.2 0,-0.1 0,0 0,0 z"
       id="path3954"
       inkscape:connector-curvature="0"
       style="fill:#c1c0b6" /><path
       d="m 168.7,347.2 c -0.2,0.1 -0.5,0.4 -0.7,0.4 -0.5,-0.1 -0.7,-0.5 -0.4,-0.9 0.1,-0.2 0.6,-0.3 0.8,-0.2 0.1,0.1 0.2,0.4 0.3,0.7 z"
       id="path3956"
       inkscape:connector-curvature="0"
       style="fill:#c1c0b6" /><path
       d="m 163.9,349.9 c 0.1,-0.8 0.3,-1.5 1.3,-1.5 0.1,0 0.3,0.2 0.3,0.3 0.1,1.1 -0.8,1.1 -1.5,1.3 0.1,0.1 -0.1,-0.1 -0.1,-0.1 z"
       id="path3958"
       inkscape:connector-curvature="0"
       style="fill:#c1c0b6" /><path
       d="m 156.1,355.1 c -0.2,0.8 -0.3,1.5 -1.4,1.5 -0.1,0 -0.3,-0.2 -0.3,-0.3 -0.1,-1.1 0.8,-1.1 1.5,-1.3 0,-0.1 0.2,0.1 0.2,0.1 z"
       id="path3960"
       inkscape:connector-curvature="0"
       style="fill:#c1c0b6" /><path
       d="m 190,332 c 0.1,-0.8 0.2,-1.6 1.3,-1.5 0.1,0 0.3,0.2 0.3,0.3 0,1.1 -0.8,1.1 -1.6,1.2 z"
       id="path3962"
       inkscape:connector-curvature="0"
       style="fill:#c3c2b8" /><path
       d="m 201,324 c 0.4,-0.8 1.2,-1 2,-1 v 0 c -0.4,0.8 -1.1,1 -2,1 z"
       id="path3964"
       inkscape:connector-curvature="0"
       style="fill:#c5c3b9" /><path
       d="m 200,325 c -0.4,0.8 -1.2,1 -2,1 0,0 -0.1,-0.1 -0.1,-0.1 0.5,-0.7 1.2,-0.9 2.1,-0.9 0,0 0,0 0,0 z"
       id="path3966"
       inkscape:connector-curvature="0"
       style="fill:#c5c3b9" /><path
       d="m 185,335 c 0.4,-0.8 1.2,-1 2,-1 0,0 0.1,0.1 0.1,0.1 -0.5,0.7 -1.2,0.9 -2.1,0.9 0,0.1 0,0 0,0 z"
       id="path3968"
       inkscape:connector-curvature="0"
       style="fill:#c3c2b8" /><path
       d="m 182,337 c 0.4,-0.8 1.2,-1 2,-1 l 0.1,0.1 c -0.5,0.8 -1.2,0.9 -2.1,0.9 0,0 0,0 0,0 z"
       id="path3970"
       inkscape:connector-curvature="0"
       style="fill:#c3c2b8" /><path
       d="m 178.9,339 c 0.4,0 0.8,0 1.1,0 -0.5,0.8 -1.2,1 -2,1 0,0 -0.1,-0.1 -0.1,-0.1 0.4,-0.3 0.7,-0.6 1,-0.9 z"
       id="path3972"
       inkscape:connector-curvature="0"
       style="fill:#c1c0b6" /><path
       d="m 174,343 c -0.4,0.8 -1.2,1 -2,1 0,0 -0.1,-0.1 -0.1,-0.1 0.4,-0.8 1.2,-1 2,-1 0,0 0.1,0.1 0.1,0.1 z"
       id="path3974"
       inkscape:connector-curvature="0"
       style="fill:#c1c0b6" /><path
       d="m 158.9,352.9 c 0.4,-0.8 1.2,-1 2,-1 0,0 0.1,0.1 0.1,0.1 -0.4,0.8 -1.2,1 -2,1 0.1,0.1 -0.1,-0.1 -0.1,-0.1 z"
       id="path3976"
       inkscape:connector-curvature="0"
       style="fill:#c1c0b6" /><path
       d="m 190,332 c -0.4,0.8 -1.1,1 -2,1 v 0 c 0.4,-0.9 1.1,-1 2,-1 0,0 0,0 0,0 z"
       id="path3978"
       inkscape:connector-curvature="0"
       style="fill:#c3c2b8" /><path
       d="m 203,323 c 0.2,-0.1 0.3,-0.3 0.5,-0.4 -0.2,0.1 -0.3,0.3 -0.5,0.4 0,0 0,0 0,0 z"
       id="path3980"
       inkscape:connector-curvature="0"
       style="fill:#c5c3b9" /><path
       d="m 201,324 c -0.3,0.3 -0.7,0.7 -1,1 0,0 -0.1,-0.1 -0.1,-0.1 0.4,-0.3 0.7,-0.6 1.1,-0.9 0,0 0,0 0,0 z"
       id="path3982"
       inkscape:connector-curvature="0"
       style="fill:#c5c3b9" /><path
       d="m 195,328 c 0,0.3 0,0.7 0,1 -0.3,0 -0.6,0.1 -1,0 v 0 c 0.3,-0.4 0.6,-0.7 1,-1 z"
       id="path3984"
       inkscape:connector-curvature="0"
       style="fill:#c3c2b8" /><path
       d="m 194,329 c -0.2,0.1 -0.3,0.3 -0.5,0.4 0.2,-0.1 0.3,-0.3 0.5,-0.4 0,0 0,0 0,0 z"
       id="path3986"
       inkscape:connector-curvature="0"
       style="fill:#c3c2b8" /><path
       d="m 184,336 c 0.3,-0.3 0.7,-0.7 1,-1 0,0 0.1,0.1 0.1,0.1 -0.4,0.3 -0.7,0.6 -1.1,0.9 0,0 0,0 0,0 z"
       id="path3988"
       inkscape:connector-curvature="0"
       style="fill:#c3c2b8" /><path
       d="m 178,340 c -0.2,0.1 -0.3,0.3 -0.5,0.4 0.2,-0.1 0.3,-0.3 0.5,-0.4 0,0 0,0 0,0 z"
       id="path3990"
       inkscape:connector-curvature="0"
       style="fill:#c1c0b6" /><path
       d="m 188,333 c -0.3,0.3 -0.7,0.7 -1,1 0,0 -0.1,-0.1 -0.1,-0.1 0.4,-0.3 0.7,-0.6 1.1,-0.9 0,0 0,0 0,0 z"
       id="path3992"
       inkscape:connector-curvature="0"
       style="fill:#c3c2b8" /></g></svg>