<?xml version="1.0" encoding="UTF-8" standalone="no"?>
<svg
   xmlns:dc="http://purl.org/dc/elements/1.1/"
   xmlns:cc="http://creativecommons.org/ns#"
   xmlns:rdf="http://www.w3.org/1999/02/22-rdf-syntax-ns#"
   xmlns:svg="http://www.w3.org/2000/svg"
   xmlns="http://www.w3.org/2000/svg"
   xmlns:sodipodi="http://sodipodi.sourceforge.net/DTD/sodipodi-0.dtd"
   xmlns:inkscape="http://www.inkscape.org/namespaces/inkscape"
   version="1.1"
   viewBox="0 0 40 40"
   xml:space="preserve"
   id="svg33"
   sodipodi:docname="instagram.svg"
   width="40"
   height="40"
   inkscape:version="0.92.2 (unknown)"><title
     id="title23">Instagram icon</title><metadata
     id="metadata39"><rdf:RDF><cc:Work
         rdf:about=""><dc:format>image/svg+xml</dc:format><dc:type
           rdf:resource="http://purl.org/dc/dcmitype/StillImage" /><dc:title>Instagram icon</dc:title><dc:creator><cc:Agent><dc:title>https://www.shareicon.net/author/vectto</dc:title></cc:Agent></dc:creator><dc:source>https://www.shareicon.net/logo-website-instagram-instagram-logo-888047</dc:source></cc:Work></rdf:RDF></metadata><defs
     id="defs37" /><sodipodi:namedview
     pagecolor="#ffffff"
     bordercolor="#666666"
     borderopacity="1"
     objecttolerance="10"
     gridtolerance="10"
     guidetolerance="10"
     inkscape:pageopacity="0"
     inkscape:pageshadow="2"
     inkscape:window-width="1920"
     inkscape:window-height="993"
     id="namedview35"
     showgrid="false"
     inkscape:zoom="4.9166667"
     inkscape:cx="-29.79661"
     inkscape:cy="24"
     inkscape:window-x="0"
     inkscape:window-y="24"
     inkscape:window-maximized="1"
     inkscape:current-layer="svg33" /><g
     id="Icons"
     transform="matrix(1.3034606,0,0,1.3034606,-11.28308,-11.283054)"><g
       id="Icons_8_"><g
         id="g29"><linearGradient
           gradientTransform="matrix(1,0,0,-1,0,50)"
           gradientUnits="userSpaceOnUse"
           id="SVGID_1_"
           x1="24"
           x2="24"
           y1="8.7171402"
           y2="43.880219"><stop
             offset="0.09694"
             style="stop-color:#FFD879"
             id="stop2" /><stop
             offset="0.15387"
             style="stop-color:#FCCB76"
             id="stop4" /><stop
             offset="0.25828"
             style="stop-color:#F5AA6C"
             id="stop6" /><stop
             offset="0.39756"
             style="stop-color:#E9755E"
             id="stop8" /><stop
             offset="0.44898"
             style="stop-color:#E45F58"
             id="stop10" /><stop
             offset="0.67857"
             style="stop-color:#D22A9C"
             id="stop12" /><stop
             offset="1"
             style="stop-color:#6968DF"
             id="stop14" /></linearGradient><circle
           cx="24.000019"
           cy="24"
           r="15.34377"
           style="fill:url(#SVGID_1_)"
           id="circle17" /><g
           id="g21"><path
             d="m 23.99985,27.7154 c -2.0488,0 -3.7153,-1.667 -3.7153,-3.7158 0,-2.0488 1.6665,-3.7148 3.7153,-3.7148 2.0489,0 3.7159,1.666 3.7159,3.7148 0,2.0488 -1.667,3.7158 -3.7159,3.7158 z m 0,-6.4306 c -1.497,0 -2.7153,1.2177 -2.7153,2.7148 0,1.4971 1.2183,2.7158 2.7153,2.7158 1.4976,0 2.7159,-1.2187 2.7159,-2.7158 0,-1.4971 -1.2183,-2.7148 -2.7159,-2.7148 z"
             style="fill:#ffffff"
             id="path19"
             inkscape:connector-curvature="0" /></g><circle
           cx="28.24785"
           cy="19.8909"
           r="0.4621"
           style="fill:#ffffff"
           id="circle23" /><g
           id="g27"><path
             d="m 27.19765,31.2643 h -6.3955 c -2.2427,0 -4.0669,-1.8243 -4.0669,-4.0665 v -6.3955 c 0,-2.2431 1.8242,-4.0673 4.0669,-4.0673 h 6.3955 c 2.2427,0 4.0669,1.8242 4.0669,4.0673 v 6.3955 c 0,2.2422 -1.8242,4.0665 -4.0669,4.0665 z M 20.80215,17.735 c -1.6909,0 -3.0669,1.3759 -3.0669,3.0673 v 6.3955 c 0,1.6905 1.376,3.0665 3.0669,3.0665 h 6.3955 c 1.6909,0 3.0669,-1.376 3.0669,-3.0665 v -6.3955 c 0,-1.6914 -1.376,-3.0673 -3.0669,-3.0673 z"
             style="fill:#ffffff"
             id="path25"
             inkscape:connector-curvature="0" /></g></g></g></g></svg>